<?xml version="1.0" encoding="UTF-8"?>
<svg xmlns="http://www.w3.org/2000/svg" xmlns:xlink="http://www.w3.org/1999/xlink" width="3500px" height="3500px" viewBox="0 0 3500 3500" version="1.1">
<g id="surface1">
<path style=" stroke:none;fill-rule:nonzero;fill:rgb(45.09804%,37.254903%,35.686275%);fill-opacity:1;" d="M 886.859375 478.042969 C 889.023438 478.042969 891.191406 478.042969 893.421875 478.042969 C 895.914062 478.039062 898.410156 478.03125 900.976562 478.027344 C 905.144531 478.035156 905.144531 478.035156 909.398438 478.046875 C 912.332031 478.042969 915.265625 478.039062 918.289062 478.039062 C 926.507812 478.03125 934.722656 478.039062 942.941406 478.046875 C 951.851562 478.054688 960.761719 478.050781 969.675781 478.046875 C 985.316406 478.042969 1000.960938 478.046875 1016.601562 478.054688 C 1039.863281 478.070312 1063.121094 478.070312 1086.382812 478.066406 C 1125.503906 478.066406 1164.625 478.074219 1203.746094 478.085938 C 1242.5 478.101562 1281.253906 478.109375 1320.007812 478.113281 C 1322.414062 478.113281 1324.824219 478.113281 1327.300781 478.113281 C 1339.523438 478.113281 1351.742188 478.113281 1363.964844 478.113281 C 1450.601562 478.121094 1537.238281 478.136719 1623.875 478.15625 C 1708.058594 478.179688 1792.246094 478.195312 1876.429688 478.207031 C 1880.320312 478.207031 1880.320312 478.207031 1884.289062 478.207031 C 1910.332031 478.210938 1936.375 478.210938 1962.417969 478.214844 C 2015.472656 478.222656 2068.527344 478.226562 2121.585938 478.234375 C 2124.023438 478.234375 2126.464844 478.234375 2128.976562 478.234375 C 2291.984375 478.257812 2454.992188 478.292969 2618 478.332031 C 2618 480.644531 2618 482.953125 2618 485.332031 C 2623.390625 486.101562 2628.78125 486.875 2634.332031 487.667969 C 2634.332031 489.207031 2634.332031 490.746094 2634.332031 492.332031 C 2638.953125 492.332031 2643.574219 492.332031 2648.332031 492.332031 C 2648.332031 494.644531 2648.332031 496.953125 2648.332031 499.332031 C 2651.414062 500.101562 2654.492188 500.875 2657.667969 501.667969 C 2657.667969 503.207031 2657.667969 504.746094 2657.667969 506.332031 C 2661.515625 506.332031 2665.367188 506.332031 2669.332031 506.332031 C 2669.332031 508.644531 2669.332031 510.953125 2669.332031 513.332031 C 2671.644531 514.101562 2673.953125 514.875 2676.332031 515.667969 C 2676.332031 520.285156 2676.332031 524.90625 2676.332031 529.667969 C 2677.875 529.667969 2679.414062 529.667969 2681 529.667969 C 2680.230469 527.355469 2679.460938 525.046875 2678.667969 522.667969 C 2680.976562 522.667969 2683.285156 522.667969 2685.667969 522.667969 C 2685.667969 526.515625 2685.667969 530.367188 2685.667969 534.332031 C 2687.207031 534.332031 2688.746094 534.332031 2690.332031 534.332031 C 2690.332031 538.953125 2690.332031 543.574219 2690.332031 548.332031 C 2693.414062 548.332031 2696.492188 548.332031 2699.667969 548.332031 C 2699.667969 552.953125 2699.667969 557.574219 2699.667969 562.332031 C 2701.207031 562.332031 2702.746094 562.332031 2704.332031 562.332031 C 2704.40625 767.542969 2704.476562 972.753906 2704.53125 1238.046875 C 2704.53125 1241.414062 2704.53125 1244.777344 2704.53125 1248.144531 C 2704.546875 1318.792969 2704.558594 1389.445312 2704.570312 1460.09375 C 2704.578125 1495.585938 2704.582031 1531.074219 2704.589844 1566.5625 C 2704.589844 1571.917969 2704.589844 1577.269531 2704.589844 1582.625 C 2704.605469 1665.0625 2704.625 1747.503906 2704.652344 1829.945312 C 2704.65625 1831.714844 2704.65625 1833.488281 2704.65625 1835.316406 C 2704.667969 1863.894531 2704.675781 1892.476562 2704.6875 1921.054688 C 2704.71875 2003.371094 2704.746094 2085.6875 2704.757812 2168.003906 C 2704.757812 2170.542969 2704.757812 2170.542969 2704.757812 2173.132812 C 2704.765625 2210.289062 2704.769531 2247.449219 2704.773438 2284.605469 C 2704.773438 2299.554688 2704.773438 2314.507812 2704.777344 2329.457031 C 2704.777344 2331.09375 2704.777344 2332.730469 2704.777344 2334.414062 C 2704.78125 2387.144531 2704.800781 2439.871094 2704.828125 2492.597656 C 2704.859375 2547.1875 2704.871094 2601.773438 2704.863281 2656.363281 C 2704.859375 2687.847656 2704.867188 2719.332031 2704.898438 2750.8125 C 2704.914062 2771.828125 2704.914062 2792.847656 2704.902344 2813.863281 C 2704.894531 2825.847656 2704.894531 2837.828125 2704.917969 2849.8125 C 2704.933594 2860.714844 2704.933594 2871.617188 2704.914062 2882.519531 C 2704.910156 2886.4375 2704.914062 2890.359375 2704.925781 2894.28125 C 2704.988281 2913.828125 2704.808594 2932.632812 2699.667969 2951.667969 C 2696.585938 2951.667969 2693.507812 2951.667969 2690.332031 2951.667969 C 2690.332031 2956.285156 2690.332031 2960.90625 2690.332031 2965.667969 C 2688.792969 2965.667969 2687.253906 2965.667969 2685.667969 2965.667969 C 2685.667969 2967.207031 2685.667969 2968.746094 2685.667969 2970.332031 C 2682.585938 2970.332031 2679.507812 2970.332031 2676.332031 2970.332031 C 2676.332031 2973.414062 2676.332031 2976.492188 2676.332031 2979.667969 C 2674.792969 2979.667969 2673.253906 2979.667969 2671.667969 2979.667969 C 2671.667969 2981.207031 2671.667969 2982.746094 2671.667969 2984.332031 C 2668.585938 2984.332031 2665.507812 2984.332031 2662.332031 2984.332031 C 2662.332031 2987.414062 2662.332031 2990.492188 2662.332031 2993.667969 C 2654.800781 2998.6875 2652.335938 2998.800781 2643.667969 2998.332031 C 2643.667969 3001.414062 2643.667969 3004.492188 2643.667969 3007.667969 C 2632.675781 3011.789062 2622.59375 3013.46875 2611 3014.667969 C 2612.539062 3016.207031 2614.078125 3017.746094 2615.667969 3019.332031 C 2613.332031 3021.667969 2613.332031 3021.667969 2608.5 3021.957031 C 2605.269531 3021.957031 2605.269531 3021.957031 2601.972656 3021.957031 C 2599.492188 3021.960938 2597.011719 3021.96875 2594.457031 3021.972656 C 2591.691406 3021.964844 2588.929688 3021.960938 2586.082031 3021.953125 C 2583.164062 3021.957031 2580.246094 3021.960938 2577.238281 3021.960938 C 2569.066406 3021.96875 2560.890625 3021.960938 2552.71875 3021.953125 C 2543.855469 3021.945312 2534.992188 3021.949219 2526.128906 3021.953125 C 2510.570312 3021.957031 2495.011719 3021.953125 2479.453125 3021.945312 C 2456.320312 3021.929688 2433.183594 3021.929688 2410.046875 3021.933594 C 2371.136719 3021.933594 2332.226562 3021.925781 2293.316406 3021.914062 C 2254.769531 3021.898438 2216.222656 3021.890625 2177.675781 3021.886719 C 2175.285156 3021.886719 2172.890625 3021.886719 2170.425781 3021.886719 C 2158.269531 3021.886719 2146.113281 3021.886719 2133.960938 3021.886719 C 2047.789062 3021.878906 1961.617188 3021.863281 1875.445312 3021.84375 C 1791.714844 3021.820312 1707.980469 3021.804688 1624.25 3021.792969 C 1621.671875 3021.792969 1619.089844 3021.792969 1616.433594 3021.792969 C 1590.53125 3021.789062 1564.628906 3021.789062 1538.726562 3021.785156 C 1485.953125 3021.777344 1433.183594 3021.773438 1380.414062 3021.765625 C 1377.988281 3021.765625 1375.558594 3021.765625 1373.058594 3021.765625 C 1210.929688 3021.742188 1048.796875 3021.707031 886.667969 3021.667969 C 886.667969 3019.355469 886.667969 3017.046875 886.667969 3014.667969 C 880.507812 3013.898438 874.347656 3013.125 868 3012.332031 C 868 3010.792969 868 3009.253906 868 3007.667969 C 863.378906 3007.667969 858.761719 3007.667969 854 3007.667969 C 853.230469 3006.125 852.460938 3004.585938 851.667969 3003 C 853.207031 3003 854.746094 3003 856.332031 3003 C 856.332031 3001.460938 856.332031 2999.921875 856.332031 2998.332031 C 853.664062 2998.476562 853.664062 2998.476562 850.9375 2998.625 C 844.667969 2998.332031 844.667969 2998.332031 837.667969 2993.667969 C 837.667969 2990.585938 837.667969 2987.507812 837.667969 2984.332031 C 834.585938 2984.332031 831.507812 2984.332031 828.332031 2984.332031 C 828.332031 2982.792969 828.332031 2981.253906 828.332031 2979.667969 C 826.792969 2979.667969 825.253906 2979.667969 823.667969 2979.667969 C 823.667969 2976.585938 823.667969 2973.507812 823.667969 2970.332031 C 820.585938 2970.332031 817.507812 2970.332031 814.332031 2970.332031 C 814.332031 2968.792969 814.332031 2967.253906 814.332031 2965.667969 C 812.792969 2965.667969 811.253906 2965.667969 809.667969 2965.667969 C 809.667969 2961.046875 809.667969 2956.425781 809.667969 2951.667969 C 806.585938 2951.667969 803.507812 2951.667969 800.332031 2951.667969 C 794.585938 2931.582031 795.023438 2911.785156 795.09375 2891.09375 C 795.089844 2887.03125 795.082031 2882.96875 795.074219 2878.90625 C 795.0625 2867.71875 795.078125 2856.535156 795.097656 2845.351562 C 795.113281 2833.191406 795.101562 2821.03125 795.09375 2808.871094 C 795.082031 2787.550781 795.089844 2766.230469 795.109375 2744.914062 C 795.136719 2713.210938 795.140625 2681.511719 795.136719 2649.8125 C 795.128906 2596.488281 795.144531 2543.164062 795.171875 2489.839844 C 795.199219 2437.035156 795.21875 2384.230469 795.222656 2331.421875 C 795.222656 2329.78125 795.222656 2328.144531 795.222656 2326.453125 C 795.226562 2311.472656 795.226562 2296.492188 795.226562 2281.515625 C 795.230469 2244.277344 795.234375 2207.039062 795.242188 2169.800781 C 795.242188 2168.105469 795.242188 2166.410156 795.242188 2164.664062 C 795.253906 2082.183594 795.285156 1999.703125 795.316406 1917.222656 C 795.324219 1888.597656 795.335938 1859.976562 795.347656 1831.355469 C 795.347656 1829.582031 795.347656 1827.804688 795.347656 1825.976562 C 795.378906 1743.449219 795.394531 1660.925781 795.410156 1578.398438 C 795.410156 1573.042969 795.410156 1567.683594 795.414062 1562.328125 C 795.417969 1526.820312 795.425781 1491.316406 795.429688 1455.808594 C 795.441406 1385.160156 795.453125 1314.511719 795.46875 1243.863281 C 795.46875 1240.5 795.46875 1237.136719 795.46875 1233.769531 C 795.507812 1035.144531 795.570312 836.519531 795.667969 562.332031 C 797.207031 562.332031 798.746094 562.332031 800.332031 562.332031 C 800.332031 557.714844 800.332031 553.09375 800.332031 548.332031 C 803.414062 548.332031 806.492188 548.332031 809.667969 548.332031 C 809.667969 543.714844 809.667969 539.09375 809.667969 534.332031 C 811.207031 534.332031 812.746094 534.332031 814.332031 534.332031 C 814.332031 532.792969 814.332031 531.253906 814.332031 529.667969 C 817.414062 529.667969 820.492188 529.667969 823.667969 529.667969 C 823.667969 525.046875 823.667969 520.425781 823.667969 515.667969 C 825.976562 515.667969 828.285156 515.667969 830.667969 515.667969 C 829.898438 513.355469 829.125 511.046875 828.332031 508.667969 C 830.667969 506.332031 830.667969 506.332031 836.644531 506.1875 C 838.523438 506.234375 840.398438 506.285156 842.332031 506.332031 C 842.332031 504.792969 842.332031 503.253906 842.332031 501.667969 C 845.414062 501.667969 848.492188 501.667969 851.667969 501.667969 C 851.667969 498.585938 851.667969 495.507812 851.667969 492.332031 C 856.285156 492.332031 860.90625 492.332031 865.667969 492.332031 C 865.667969 490.792969 865.667969 489.253906 865.667969 487.667969 C 871.058594 487.667969 876.445312 487.667969 882 487.667969 C 880.84375 484.203125 880.84375 484.203125 879.667969 480.667969 C 882 478.332031 882 478.332031 886.859375 478.042969 Z M 886.859375 478.042969 "/>
<path style=" stroke:none;fill-rule:nonzero;fill:rgb(71.372551%,60.392159%,42.745098%);fill-opacity:1;" d="M 1194.980469 698.816406 C 1199.9375 698.804688 1204.898438 698.789062 1209.859375 698.769531 C 1223.417969 698.730469 1236.976562 698.75 1250.539062 698.78125 C 1265.1875 698.800781 1279.839844 698.769531 1294.488281 698.742188 C 1321.507812 698.703125 1348.527344 698.707031 1375.546875 698.734375 C 1400.511719 698.757812 1425.476562 698.761719 1450.441406 698.75 C 1452.929688 698.75 1452.929688 698.75 1455.46875 698.75 C 1462.203125 698.746094 1468.933594 698.742188 1475.667969 698.738281 C 1538.785156 698.710938 1601.902344 698.738281 1665.015625 698.789062 C 1721.039062 698.832031 1777.058594 698.828125 1833.078125 698.785156 C 1896.082031 698.734375 1959.082031 698.714844 2022.082031 698.742188 C 2028.800781 698.746094 2035.523438 698.75 2042.246094 698.75 C 2044.726562 698.753906 2044.726562 698.753906 2047.261719 698.753906 C 2072.203125 698.765625 2097.144531 698.75 2122.085938 698.726562 C 2150.460938 698.703125 2178.835938 698.707031 2207.210938 698.757812 C 2221.683594 698.78125 2236.152344 698.792969 2250.621094 698.761719 C 2263.882812 698.734375 2277.140625 698.75 2290.402344 698.800781 C 2295.183594 698.808594 2299.964844 698.804688 2304.75 698.78125 C 2340.296875 698.625 2372.71875 700.9375 2403.332031 721 C 2405.128906 722.082031 2406.925781 723.164062 2408.773438 724.28125 C 2419.359375 730.882812 2427.429688 737.679688 2435.199219 747.433594 C 2439.710938 753.050781 2444.839844 757.980469 2450 763 C 2454.667969 767.667969 2454.667969 767.667969 2458.019531 775.542969 C 2461.066406 783.65625 2461.066406 783.65625 2465.15625 788.300781 C 2469.535156 794.578125 2470.792969 800.179688 2472.457031 807.625 C 2474.476562 817.082031 2474.476562 817.082031 2478 826 C 2478.226562 829.582031 2478.304688 833.175781 2478.3125 836.769531 C 2478.320312 839.039062 2478.332031 841.308594 2478.34375 843.644531 C 2478.339844 846.144531 2478.339844 848.644531 2478.339844 851.21875 C 2478.351562 855.160156 2478.351562 855.160156 2478.363281 859.175781 C 2478.386719 867.902344 2478.390625 876.628906 2478.390625 885.355469 C 2478.398438 891.414062 2478.40625 897.46875 2478.414062 903.527344 C 2478.429688 916.253906 2478.433594 928.980469 2478.433594 941.707031 C 2478.429688 956.375 2478.457031 971.042969 2478.492188 985.707031 C 2478.527344 999.847656 2478.535156 1013.984375 2478.535156 1028.121094 C 2478.535156 1034.121094 2478.546875 1040.117188 2478.566406 1046.117188 C 2478.585938 1054.53125 2478.582031 1062.949219 2478.566406 1071.363281 C 2478.578125 1073.824219 2478.59375 1076.289062 2478.605469 1078.824219 C 2478.515625 1100.128906 2476.945312 1118.8125 2464.648438 1136.671875 C 2461.238281 1141.457031 2461.238281 1141.457031 2457.4375 1148.875 C 2445.53125 1169.695312 2429.691406 1185.441406 2410.332031 1199.332031 C 2407.421875 1201.5 2407.421875 1201.5 2404.453125 1203.707031 C 2371.152344 1226.875 2336.828125 1229.046875 2297.710938 1228.800781 C 2292.773438 1228.8125 2287.835938 1228.828125 2282.898438 1228.847656 C 2269.425781 1228.894531 2255.953125 1228.863281 2242.476562 1228.824219 C 2227.910156 1228.792969 2213.347656 1228.828125 2198.78125 1228.855469 C 2171.925781 1228.898438 2145.074219 1228.882812 2118.21875 1228.84375 C 2093.410156 1228.808594 2068.597656 1228.792969 2043.789062 1228.804688 C 2041.316406 1228.804688 2041.316406 1228.804688 2038.792969 1228.804688 C 2032.097656 1228.808594 2025.40625 1228.808594 2018.710938 1228.8125 C 1955.984375 1228.835938 1893.253906 1228.792969 1830.527344 1228.71875 C 1774.851562 1228.65625 1719.175781 1228.644531 1663.496094 1228.679688 C 1649.234375 1228.6875 1634.972656 1228.695312 1620.710938 1228.703125 C 1618.078125 1228.707031 1618.078125 1228.707031 1615.390625 1228.707031 C 1568.800781 1228.734375 1522.214844 1228.714844 1475.625 1228.6875 C 1470.613281 1228.683594 1465.597656 1228.679688 1460.582031 1228.675781 C 1457.253906 1228.675781 1453.929688 1228.671875 1450.601562 1228.667969 C 1425.808594 1228.652344 1401.019531 1228.660156 1376.226562 1228.675781 C 1348.03125 1228.695312 1319.832031 1228.679688 1291.636719 1228.621094 C 1277.253906 1228.589844 1262.875 1228.578125 1248.496094 1228.601562 C 1235.320312 1228.625 1222.148438 1228.605469 1208.972656 1228.550781 C 1204.21875 1228.539062 1199.464844 1228.542969 1194.710938 1228.566406 C 1143.953125 1228.769531 1101.777344 1217.351562 1064.246094 1181.058594 C 1040.859375 1155.984375 1021.871094 1122.242188 1021.640625 1087.292969 C 1021.621094 1084.988281 1021.601562 1082.6875 1021.582031 1080.316406 C 1021.570312 1077.816406 1021.558594 1075.316406 1021.550781 1072.742188 C 1021.53125 1070.089844 1021.511719 1067.433594 1021.492188 1064.699219 C 1021.433594 1055.917969 1021.394531 1047.132812 1021.363281 1038.351562 C 1021.347656 1035.34375 1021.335938 1032.332031 1021.324219 1029.234375 C 1021.273438 1016.570312 1021.230469 1003.90625 1021.203125 991.246094 C 1021.167969 973.191406 1021.089844 955.136719 1020.957031 937.082031 C 1020.855469 922.792969 1020.816406 908.507812 1020.800781 894.222656 C 1020.785156 888.179688 1020.75 882.140625 1020.695312 876.101562 C 1020.351562 836.769531 1020.753906 801.347656 1044.457031 768.105469 C 1045.449219 766.667969 1046.441406 765.230469 1047.464844 763.753906 C 1061.75 743.828125 1081.484375 724.804688 1103.667969 714 C 1106.746094 714 1109.828125 714 1113 714 C 1113 712.460938 1113 710.921875 1113 709.332031 C 1140.425781 699.199219 1166.015625 698.675781 1194.980469 698.816406 Z M 1194.980469 698.816406 "/>
<path style=" stroke:none;fill-rule:nonzero;fill:rgb(99.607843%,89.411765%,70.588237%);fill-opacity:1;" d="M 2274.210938 1874.628906 C 2280.917969 1874.707031 2287.621094 1874.703125 2294.328125 1874.699219 C 2300.867188 1874.703125 2307.40625 1874.742188 2313.949219 1874.789062 C 2318.511719 1874.824219 2323.074219 1874.835938 2327.636719 1874.847656 C 2352.5625 1875.242188 2374.359375 1879.671875 2396.042969 1892.1875 C 2397.613281 1893.089844 2399.1875 1893.992188 2400.808594 1894.921875 C 2437.234375 1916.722656 2464.945312 1949.917969 2476.683594 1991.144531 C 2481.351562 2013.085938 2479.832031 2036.375 2479.625 2058.675781 C 2479.5625 2066.925781 2479.585938 2075.171875 2479.59375 2083.421875 C 2479.601562 2097.667969 2479.558594 2111.917969 2479.480469 2126.164062 C 2479.367188 2146.765625 2479.328125 2167.363281 2479.3125 2187.960938 C 2479.28125 2221.394531 2479.1875 2254.824219 2479.054688 2288.257812 C 2478.925781 2320.707031 2478.828125 2353.160156 2478.769531 2385.609375 C 2478.765625 2387.617188 2478.761719 2389.621094 2478.757812 2391.683594 C 2478.738281 2401.742188 2478.722656 2411.796875 2478.703125 2421.855469 C 2478.558594 2505.125 2478.3125 2588.394531 2478 2671.667969 C 2476.460938 2671.667969 2474.921875 2671.667969 2473.332031 2671.667969 C 2472.972656 2674.554688 2472.972656 2674.554688 2472.605469 2677.5 C 2465.546875 2713.429688 2441.234375 2743.136719 2412.667969 2765 C 2411.199219 2766.171875 2409.730469 2767.339844 2408.21875 2768.546875 C 2392.5625 2780.085938 2375.121094 2785.273438 2356.667969 2790.667969 C 2355.238281 2791.089844 2353.808594 2791.515625 2352.335938 2791.949219 C 2346.179688 2793.242188 2340.410156 2793.351562 2334.117188 2793.414062 C 2331.460938 2793.441406 2328.800781 2793.472656 2326.066406 2793.503906 C 2323.195312 2793.519531 2320.328125 2793.539062 2317.375 2793.554688 C 2314.402344 2793.574219 2311.433594 2793.59375 2308.371094 2793.613281 C 2302.074219 2793.644531 2295.777344 2793.671875 2289.476562 2793.6875 C 2281.492188 2793.714844 2273.507812 2793.792969 2265.523438 2793.886719 C 2257.820312 2793.964844 2250.117188 2793.972656 2242.414062 2793.992188 C 2239.589844 2794.035156 2236.765625 2794.074219 2233.851562 2794.117188 C 2214.25 2794.066406 2197.726562 2790.398438 2179.332031 2783.667969 C 2179.332031 2782.125 2179.332031 2780.585938 2179.332031 2779 C 2177.328125 2778.828125 2175.320312 2778.65625 2173.253906 2778.480469 C 2163.929688 2776.34375 2157.902344 2772.1875 2150.605469 2766.3125 C 2149.28125 2765.261719 2147.957031 2764.210938 2146.597656 2763.128906 C 2113.832031 2736.496094 2089.359375 2700.984375 2084.171875 2658.578125 C 2083.207031 2647.917969 2083.339844 2637.246094 2083.355469 2626.550781 C 2083.347656 2623.933594 2083.34375 2621.3125 2083.339844 2618.613281 C 2083.324219 2609.859375 2083.324219 2601.101562 2083.328125 2592.347656 C 2083.320312 2586.0625 2083.3125 2579.773438 2083.304688 2573.488281 C 2083.285156 2558.199219 2083.277344 2542.90625 2083.277344 2527.617188 C 2083.277344 2515.1875 2083.269531 2502.753906 2083.261719 2490.320312 C 2083.242188 2455.039062 2083.230469 2419.761719 2083.234375 2384.480469 C 2083.234375 2382.582031 2083.234375 2380.679688 2083.234375 2378.722656 C 2083.234375 2375.871094 2083.234375 2375.871094 2083.234375 2372.960938 C 2083.234375 2342.128906 2083.214844 2311.296875 2083.179688 2280.464844 C 2083.148438 2248.777344 2083.128906 2217.085938 2083.132812 2185.398438 C 2083.132812 2167.621094 2083.128906 2149.84375 2083.101562 2132.0625 C 2083.082031 2116.929688 2083.074219 2101.792969 2083.089844 2086.660156 C 2083.097656 2078.941406 2083.097656 2071.226562 2083.078125 2063.511719 C 2083.0625 2055.132812 2083.070312 2046.753906 2083.089844 2038.375 C 2083.078125 2035.957031 2083.066406 2033.542969 2083.054688 2031.050781 C 2083.226562 1994.429688 2095.175781 1964.085938 2116.332031 1934.332031 C 2117.46875 1932.734375 2118.605469 1931.132812 2119.777344 1929.484375 C 2128.128906 1918.949219 2138.257812 1910.703125 2148.855469 1902.542969 C 2150.144531 1901.507812 2151.4375 1900.472656 2152.769531 1899.40625 C 2189.695312 1872.125 2230.5625 1874.007812 2274.210938 1874.628906 Z M 2274.210938 1874.628906 "/>
<path style=" stroke:none;fill-rule:nonzero;fill:rgb(99.607843%,89.019608%,70.980394%);fill-opacity:1;" d="M 1740.96875 1875.296875 C 1742.722656 1875.289062 1744.480469 1875.277344 1746.289062 1875.269531 C 1749.976562 1875.253906 1753.667969 1875.253906 1757.355469 1875.261719 C 1762.972656 1875.269531 1768.585938 1875.214844 1774.203125 1875.15625 C 1777.804688 1875.152344 1781.40625 1875.148438 1785.007812 1875.152344 C 1786.671875 1875.128906 1788.335938 1875.109375 1790.046875 1875.085938 C 1801.03125 1875.1875 1808.191406 1877.59375 1817.667969 1883 C 1822.261719 1884.347656 1826.882812 1885.609375 1831.519531 1886.792969 C 1860.558594 1895.507812 1885.183594 1912.871094 1906.332031 1934.332031 C 1907.757812 1935.730469 1909.179688 1937.128906 1910.644531 1938.570312 C 1944.464844 1974.242188 1960.382812 2020.433594 1960.582031 2068.644531 C 1960.632812 2071.476562 1960.679688 2074.304688 1960.730469 2077.21875 C 1960.957031 2129.953125 1938.292969 2177.101562 1901.667969 2214.332031 C 1899.890625 2216.136719 1898.117188 2217.941406 1896.289062 2219.800781 C 1874.578125 2240.585938 1848.722656 2254.609375 1820 2263.332031 C 1817.5625 2264.125 1815.121094 2264.921875 1812.609375 2265.738281 C 1803.304688 2268.09375 1794.714844 2268.714844 1785.191406 2268.703125 C 1782.605469 2268.71875 1782.605469 2268.71875 1779.96875 2268.730469 C 1776.339844 2268.746094 1772.710938 2268.746094 1769.082031 2268.738281 C 1763.617188 2268.730469 1758.15625 2268.785156 1752.691406 2268.84375 C 1725.078125 2268.964844 1700.3125 2265.601562 1675.480469 2252.6875 C 1673.910156 2251.878906 1672.339844 2251.070312 1670.722656 2250.238281 C 1629.097656 2228.046875 1598.796875 2194.296875 1579.667969 2151.332031 C 1578.960938 2149.84375 1578.257812 2148.359375 1577.53125 2146.824219 C 1557.265625 2102.890625 1560.054688 2048.292969 1575.410156 2003.292969 C 1599.589844 1946.292969 1637.261719 1908.421875 1694.4375 1884.894531 C 1709.921875 1878.695312 1724.246094 1875.277344 1740.96875 1875.296875 Z M 1740.96875 1875.296875 "/>
<path style=" stroke:none;fill-rule:nonzero;fill:rgb(99.607843%,89.019608%,70.980394%);fill-opacity:1;" d="M 1238.125 1875.125 C 1241 1875.128906 1243.875 1875.132812 1246.839844 1875.132812 C 1301.011719 1875.652344 1349.691406 1896.699219 1388.589844 1934.441406 C 1401.777344 1948.449219 1411.496094 1964.34375 1421 1981 C 1422.132812 1982.945312 1423.269531 1984.890625 1424.4375 1986.898438 C 1446.222656 2026.941406 1449.007812 2078.847656 1437.597656 2122.703125 C 1430.011719 2144.980469 1420.777344 2167.132812 1407 2186.332031 C 1405.980469 2187.820312 1404.960938 2189.3125 1403.910156 2190.84375 C 1381.511719 2222.328125 1351.429688 2243.769531 1316 2258.667969 C 1313.117188 2259.910156 1313.117188 2259.910156 1310.175781 2261.179688 C 1290.773438 2268.652344 1272.6875 2269.515625 1252.179688 2269.34375 C 1246.773438 2269.3125 1241.382812 2269.390625 1235.976562 2269.480469 C 1204.054688 2269.648438 1172.648438 2263.371094 1144.9375 2246.707031 C 1142.664062 2245.382812 1142.664062 2245.382812 1140.34375 2244.027344 C 1116.191406 2229.367188 1096.6875 2209.273438 1080.332031 2186.332031 C 1079.148438 2184.710938 1077.964844 2183.085938 1076.742188 2181.410156 C 1072.789062 2175.449219 1069.554688 2169.390625 1066.332031 2163 C 1065.140625 2160.71875 1065.140625 2160.71875 1063.921875 2158.390625 C 1050.144531 2131.1875 1045.914062 2105.515625 1046.0625 2075.355469 C 1046.0625 2073.773438 1046.066406 2072.191406 1046.066406 2070.5625 C 1046.429688 2017.121094 1066.078125 1967.890625 1103.667969 1929.667969 C 1119.15625 1915.054688 1136.1875 1903.296875 1155.144531 1893.644531 C 1156.542969 1892.933594 1157.945312 1892.21875 1159.386719 1891.484375 C 1185.238281 1879.113281 1209.5625 1874.554688 1238.125 1875.125 Z M 1238.125 1875.125 "/>
<path style=" stroke:none;fill-rule:nonzero;fill:rgb(99.607843%,89.019608%,70.980394%);fill-opacity:1;" d="M 1247.75 1352.457031 C 1250.472656 1352.429688 1253.195312 1352.402344 1256 1352.375 C 1271.554688 1352.429688 1283.164062 1353.910156 1297.332031 1360.332031 C 1300.433594 1361.296875 1303.542969 1362.222656 1306.667969 1363.105469 C 1334.765625 1372.488281 1359.574219 1386.917969 1381.332031 1407 C 1382.976562 1408.429688 1384.617188 1409.859375 1386.308594 1411.328125 C 1406.441406 1429.84375 1419.742188 1453.769531 1430.1875 1478.75 C 1430.847656 1480.320312 1431.503906 1481.886719 1432.183594 1483.503906 C 1450.425781 1529.523438 1446.496094 1582.722656 1428.039062 1627.859375 C 1405.679688 1679.417969 1367.523438 1714.460938 1316 1736 C 1262.0625 1755.011719 1207.195312 1753.859375 1155.175781 1729.46875 C 1121.757812 1712.863281 1095.660156 1688.03125 1075.667969 1656.667969 C 1074.390625 1654.742188 1073.117188 1652.816406 1071.800781 1650.832031 C 1063.402344 1637.65625 1058.496094 1625.09375 1054.667969 1610 C 1053.800781 1607.207031 1052.933594 1604.417969 1052.042969 1601.542969 C 1038.578125 1549.617188 1046.066406 1494.960938 1072.359375 1448.882812 C 1101.402344 1400.234375 1146.867188 1371.425781 1200.425781 1356.652344 C 1216.292969 1352.738281 1231.472656 1352.292969 1247.75 1352.457031 Z M 1247.75 1352.457031 "/>
<path style=" stroke:none;fill-rule:nonzero;fill:rgb(99.607843%,89.019608%,70.980394%);fill-opacity:1;" d="M 1242.9375 2395.457031 C 1245.375 2395.453125 1247.8125 2395.449219 1250.324219 2395.445312 C 1274.921875 2395.796875 1296.3125 2399.355469 1318.332031 2410.332031 C 1321.207031 2411.648438 1324.078125 2412.960938 1326.957031 2414.269531 C 1381.292969 2439.523438 1413.78125 2482.699219 1435.929688 2537.390625 C 1449.699219 2580.164062 1445.875 2628.527344 1428 2669.332031 C 1427.3125 2670.910156 1426.625 2672.488281 1425.917969 2674.113281 C 1403.976562 2722.699219 1363.027344 2761.679688 1313.484375 2781.1875 C 1270.558594 2796.796875 1226.371094 2798.226562 1183 2783.667969 C 1179.34375 2782.65625 1179.34375 2782.65625 1175.617188 2781.625 C 1127.855469 2767.800781 1092.683594 2727.496094 1068.011719 2686.132812 C 1062.257812 2675.425781 1058.183594 2664.605469 1054.667969 2653 C 1054.082031 2651.433594 1053.5 2649.867188 1052.898438 2648.253906 C 1046.730469 2630.53125 1046.625 2613.585938 1046.792969 2594.957031 C 1046.765625 2591.960938 1046.738281 2588.960938 1046.710938 2585.871094 C 1046.804688 2554.367188 1054.351562 2529.21875 1068.667969 2501.332031 C 1070.210938 2498.304688 1070.210938 2498.304688 1071.785156 2495.21875 C 1094.722656 2453.78125 1135.769531 2419.785156 1180.667969 2405.667969 C 1182.917969 2404.796875 1185.171875 2403.929688 1187.492188 2403.03125 C 1206.117188 2396.507812 1223.308594 2395.488281 1242.9375 2395.457031 Z M 1242.9375 2395.457031 "/>
<path style=" stroke:none;fill-rule:nonzero;fill:rgb(99.607843%,89.019608%,70.980394%);fill-opacity:1;" d="M 1843.332031 1369.667969 C 1845.59375 1370.695312 1845.59375 1370.695312 1847.898438 1371.742188 C 1866.261719 1380.339844 1881.675781 1391.515625 1897 1404.667969 C 1898.457031 1405.785156 1899.910156 1406.90625 1901.410156 1408.058594 C 1934.796875 1434.222656 1954.027344 1480.3125 1960 1521.332031 C 1960.203125 1525.847656 1960.304688 1530.367188 1960.308594 1534.886719 C 1960.3125 1537.398438 1960.316406 1539.914062 1960.320312 1542.5 C 1960.308594 1545.09375 1960.300781 1547.683594 1960.292969 1550.355469 C 1960.300781 1552.9375 1960.308594 1555.519531 1960.320312 1558.179688 C 1960.257812 1610.332031 1937.972656 1655.511719 1902.789062 1693.316406 C 1867.214844 1728.035156 1814.113281 1749.332031 1764.4375 1750.730469 C 1755.269531 1750.371094 1746.5 1748.640625 1737.558594 1746.644531 C 1730.84375 1745.230469 1724.128906 1744.265625 1717.332031 1743.292969 C 1668.21875 1735.09375 1627.777344 1703.273438 1599.0625 1663.957031 C 1584.226562 1641.941406 1575.144531 1619.128906 1568 1593.667969 C 1567.230469 1591.355469 1566.460938 1589.046875 1565.667969 1586.667969 C 1560.796875 1524.398438 1570.554688 1472.816406 1608.832031 1423.042969 C 1666.960938 1356.378906 1762.554688 1332.683594 1843.332031 1369.667969 Z M 1843.332031 1369.667969 "/>
<path style=" stroke:none;fill-rule:nonzero;fill:rgb(99.607843%,89.019608%,70.980394%);fill-opacity:1;" d="M 1829.332031 2412.667969 C 1830.789062 2413.351562 1832.246094 2414.035156 1833.746094 2414.742188 C 1852.074219 2423.40625 1867.882812 2434.214844 1883 2447.667969 C 1884.601562 2449.074219 1886.199219 2450.480469 1887.847656 2451.933594 C 1909.113281 2471.859375 1925.527344 2497.878906 1936.667969 2524.667969 C 1938.113281 2528.128906 1938.113281 2528.128906 1939.59375 2531.65625 C 1952.542969 2569.972656 1953.148438 2626.144531 1936.246094 2663.179688 C 1934.839844 2666.011719 1933.421875 2668.839844 1932 2671.667969 C 1930.628906 2674.664062 1929.261719 2677.664062 1927.898438 2680.664062 C 1905.660156 2727.507812 1864.210938 2764.90625 1815.53125 2782.992188 C 1773.550781 2797.039062 1728.867188 2797.988281 1687 2783.667969 C 1684.789062 2783.019531 1682.578125 2782.375 1680.300781 2781.707031 C 1648.9375 2771.828125 1621.3125 2750.445312 1600.667969 2725.332031 C 1598.996094 2723.339844 1597.328125 2721.34375 1595.609375 2719.289062 C 1584.964844 2705.9375 1576.738281 2692.613281 1569.457031 2677.207031 C 1568.332031 2674.828125 1568.332031 2674.828125 1567.183594 2672.402344 C 1564.980469 2667.535156 1562.953125 2662.636719 1561 2657.667969 C 1560.324219 2655.957031 1559.652344 2654.25 1558.957031 2652.488281 C 1552.851562 2634.964844 1552.808594 2617.574219 1552.980469 2599.1875 C 1552.984375 2597.585938 1552.992188 2595.988281 1553 2594.339844 C 1553.324219 2545.207031 1565.035156 2507.710938 1596 2468.667969 C 1597.410156 2466.867188 1598.820312 2465.070312 1600.273438 2463.214844 C 1626.695312 2431.511719 1672.117188 2400.710938 1714.238281 2396.6875 C 1755.746094 2393.972656 1791.597656 2393.976562 1829.332031 2412.667969 Z M 1829.332031 2412.667969 "/>
<path style=" stroke:none;fill-rule:nonzero;fill:rgb(75.294119%,68.627453%,61.56863%);fill-opacity:1;" d="M 2382.332031 1381.332031 C 2384.664062 1382.632812 2386.996094 1383.933594 2389.398438 1385.269531 C 2419.574219 1403.28125 2448.8125 1429.300781 2458.605469 1464.019531 C 2458.84375 1465.222656 2459.085938 1466.425781 2459.332031 1467.667969 C 2460.875 1467.667969 2462.414062 1467.667969 2464 1467.667969 C 2465.472656 1471.160156 2466.929688 1474.660156 2468.375 1478.167969 C 2469.59375 1481.089844 2469.59375 1481.089844 2470.835938 1484.074219 C 2477.917969 1503.71875 2478.796875 1521.769531 2478.738281 1542.433594 C 2478.730469 1547.539062 2478.785156 1552.640625 2478.84375 1557.746094 C 2478.941406 1580.261719 2475.800781 1600.257812 2468.667969 1621.667969 C 2467.125 1621.667969 2465.585938 1621.667969 2464 1621.667969 C 2463.601562 1624.1875 2463.601562 1624.1875 2463.199219 1626.761719 C 2454.410156 1664.472656 2420.171875 1697.519531 2388.894531 1717.769531 C 2338.136719 1747.867188 2282.644531 1754.628906 2225.609375 1741.269531 C 2177.355469 1727.984375 2136.929688 1697.554688 2111.347656 1654.539062 C 2108.726562 1649.898438 2106.230469 1645.214844 2103.792969 1640.480469 C 2103.070312 1639.089844 2102.347656 1637.703125 2101.601562 1636.269531 C 2088.027344 1608.300781 2084.238281 1580.507812 2084.542969 1549.917969 C 2084.546875 1548.175781 2084.554688 1546.4375 2084.5625 1544.644531 C 2084.761719 1516.984375 2087.453125 1492.628906 2100 1467.667969 C 2100.6875 1466.214844 2101.375 1464.765625 2102.082031 1463.269531 C 2125.402344 1414.757812 2171.644531 1378.046875 2221.898438 1359.941406 C 2278.527344 1344.046875 2331.78125 1352.835938 2382.332031 1381.332031 Z M 2382.332031 1381.332031 "/>
<path style=" stroke:none;fill-rule:nonzero;fill:rgb(14.509805%,11.372549%,10.980392%);fill-opacity:1;" d="M 2699.667969 1138.667969 C 2701.207031 1138.667969 2702.746094 1138.667969 2704.332031 1138.667969 C 2704.414062 1308.957031 2704.488281 1479.25 2704.53125 1649.542969 C 2704.53125 1653.320312 2704.53125 1653.320312 2704.53125 1657.179688 C 2704.546875 1711.9375 2704.558594 1766.695312 2704.570312 1821.453125 C 2704.578125 1848.308594 2704.582031 1875.160156 2704.589844 1902.011719 C 2704.589844 1904.683594 2704.589844 1907.359375 2704.589844 1910.109375 C 2704.613281 1996.75 2704.644531 2083.386719 2704.6875 2170.027344 C 2704.734375 2259.046875 2704.761719 2348.070312 2704.773438 2437.089844 C 2704.773438 2449.660156 2704.773438 2462.230469 2704.777344 2474.796875 C 2704.777344 2477.273438 2704.777344 2479.746094 2704.777344 2482.292969 C 2704.78125 2522.140625 2704.804688 2561.988281 2704.832031 2601.835938 C 2704.859375 2641.878906 2704.871094 2681.921875 2704.863281 2721.96875 C 2704.859375 2745.769531 2704.867188 2769.570312 2704.898438 2793.371094 C 2704.914062 2809.265625 2704.914062 2825.160156 2704.902344 2841.054688 C 2704.894531 2850.113281 2704.894531 2859.171875 2704.917969 2868.230469 C 2704.9375 2877.992188 2704.925781 2887.75 2704.90625 2897.511719 C 2704.925781 2901.726562 2704.925781 2901.726562 2704.945312 2906.027344 C 2704.882812 2921.792969 2703.480469 2936.351562 2699.667969 2951.667969 C 2696.585938 2951.667969 2693.507812 2951.667969 2690.332031 2951.667969 C 2690.332031 2956.285156 2690.332031 2960.90625 2690.332031 2965.667969 C 2688.792969 2965.667969 2687.253906 2965.667969 2685.667969 2965.667969 C 2685.667969 2967.207031 2685.667969 2968.746094 2685.667969 2970.332031 C 2682.585938 2970.332031 2679.507812 2970.332031 2676.332031 2970.332031 C 2676.332031 2973.414062 2676.332031 2976.492188 2676.332031 2979.667969 C 2674.792969 2979.667969 2673.253906 2979.667969 2671.667969 2979.667969 C 2671.667969 2981.207031 2671.667969 2982.746094 2671.667969 2984.332031 C 2668.585938 2983.5625 2665.507812 2982.792969 2662.332031 2982 C 2663.6875 2980.640625 2665.039062 2979.28125 2666.433594 2977.878906 C 2668.257812 2975.96875 2670.082031 2974.054688 2671.957031 2972.082031 C 2673.746094 2970.242188 2675.53125 2968.402344 2677.371094 2966.503906 C 2694.253906 2945.96875 2699.398438 2925.304688 2699.09375 2899.234375 C 2699.113281 2896.175781 2699.132812 2893.121094 2699.152344 2889.96875 C 2699.207031 2881.523438 2699.175781 2873.078125 2699.125 2864.632812 C 2699.089844 2855.429688 2699.136719 2846.226562 2699.171875 2837.019531 C 2699.21875 2820.90625 2699.21875 2804.789062 2699.183594 2788.671875 C 2699.128906 2764.707031 2699.15625 2740.746094 2699.199219 2716.78125 C 2699.269531 2676.464844 2699.277344 2636.148438 2699.246094 2595.835938 C 2699.214844 2555.921875 2699.214844 2516.011719 2699.25 2476.101562 C 2699.253906 2473.617188 2699.253906 2471.136719 2699.257812 2468.578125 C 2699.269531 2455.96875 2699.28125 2443.363281 2699.292969 2430.757812 C 2699.378906 2341.480469 2699.402344 2252.203125 2699.386719 2162.929688 C 2699.371094 2076.203125 2699.386719 1989.480469 2699.4375 1902.753906 C 2699.441406 1900.078125 2699.441406 1897.40625 2699.445312 1894.652344 C 2699.460938 1867.800781 2699.476562 1840.949219 2699.496094 1814.101562 C 2699.53125 1759.40625 2699.5625 1704.707031 2699.59375 1650.011719 C 2699.59375 1647.496094 2699.59375 1644.984375 2699.597656 1642.390625 C 2699.6875 1474.484375 2699.683594 1306.574219 2699.667969 1138.667969 Z M 2699.667969 1138.667969 "/>
<path style=" stroke:none;fill-rule:nonzero;fill:rgb(9.019608%,7.450981%,7.450981%);fill-opacity:1;" d="M 886.667969 3014.667969 C 1275.515625 3014.667969 1664.367188 3014.667969 2065 3014.667969 C 2065 3016.976562 2065 3019.285156 2065 3021.667969 C 1676.148438 3021.667969 1287.300781 3021.667969 886.667969 3021.667969 C 886.667969 3019.355469 886.667969 3017.046875 886.667969 3014.667969 Z M 886.667969 3014.667969 "/>
<path style=" stroke:none;fill-rule:nonzero;fill:rgb(1.960784%,1.176471%,1.568628%);fill-opacity:1;" d="M 882 478.332031 C 1454.878906 478.332031 2027.761719 478.332031 2618 478.332031 C 2618 480.644531 2618 482.953125 2618 485.332031 C 2045.121094 485.332031 1472.238281 485.332031 882 485.332031 C 882 483.023438 882 480.714844 882 478.332031 Z M 882 478.332031 "/>
<path style=" stroke:none;fill-rule:nonzero;fill:rgb(19.607843%,14.509805%,15.294118%);fill-opacity:1;" d="M 800.332031 548.332031 C 803.414062 549.101562 806.492188 549.875 809.667969 550.667969 C 807.394531 554.074219 807.394531 554.074219 805.074219 557.550781 C 797.253906 573.375 799.050781 591.28125 799.148438 608.507812 C 799.136719 612.558594 799.121094 616.605469 799.105469 620.65625 C 799.0625 631.808594 799.082031 642.964844 799.109375 654.117188 C 799.128906 666.242188 799.097656 678.367188 799.070312 690.492188 C 799.027344 711.75 799.023438 733.007812 799.039062 754.269531 C 799.066406 785.878906 799.035156 817.488281 798.996094 849.101562 C 798.933594 902.273438 798.910156 955.445312 798.914062 1008.617188 C 798.917969 1061.273438 798.902344 1113.933594 798.859375 1166.589844 C 798.859375 1168.226562 798.855469 1169.859375 798.855469 1171.546875 C 798.84375 1186.480469 798.832031 1201.417969 798.820312 1216.355469 C 798.789062 1253.484375 798.761719 1290.613281 798.734375 1327.742188 C 798.734375 1329.433594 798.734375 1331.125 798.730469 1332.863281 C 798.675781 1415.113281 798.652344 1497.363281 798.632812 1579.613281 C 798.625 1608.15625 798.617188 1636.695312 798.609375 1665.238281 C 798.609375 1667.007812 798.609375 1668.78125 798.609375 1670.605469 C 798.585938 1752.894531 798.539062 1835.1875 798.488281 1917.476562 C 798.484375 1922.820312 798.480469 1928.164062 798.476562 1933.503906 C 798.453125 1968.910156 798.429688 2004.3125 798.40625 2039.71875 C 798.363281 2110.164062 798.316406 2180.609375 798.273438 2251.054688 C 798.273438 2254.410156 798.269531 2257.761719 798.269531 2261.117188 C 798.148438 2461.484375 798.078125 2661.851562 798 2930.667969 C 797.230469 2930.667969 796.460938 2930.667969 795.667969 2930.667969 C 795.667969 2149.117188 795.667969 1367.566406 795.667969 562.332031 C 797.207031 562.332031 798.746094 562.332031 800.332031 562.332031 C 800.332031 557.714844 800.332031 553.09375 800.332031 548.332031 Z M 800.332031 548.332031 "/>
<path style=" stroke:none;fill-rule:nonzero;fill:rgb(8.627451%,7.058824%,7.058824%);fill-opacity:1;" d="M 2072 3014.667969 C 2140.585938 3014.558594 2209.171875 3014.476562 2277.757812 3014.429688 C 2285.847656 3014.421875 2293.9375 3014.417969 2302.03125 3014.410156 C 2303.640625 3014.410156 2305.25 3014.40625 2306.910156 3014.40625 C 2333.019531 3014.386719 2359.125 3014.347656 2385.234375 3014.304688 C 2412.007812 3014.261719 2438.777344 3014.238281 2465.550781 3014.226562 C 2480.597656 3014.222656 2495.640625 3014.207031 2510.6875 3014.171875 C 2524.832031 3014.140625 2538.976562 3014.132812 2553.121094 3014.140625 C 2558.328125 3014.136719 2563.53125 3014.128906 2568.738281 3014.109375 C 2575.816406 3014.085938 2582.898438 3014.09375 2589.976562 3014.105469 C 2592.058594 3014.09375 2594.144531 3014.078125 2596.289062 3014.0625 C 2610.46875 3014.132812 2610.46875 3014.132812 2615.667969 3019.332031 C 2611.242188 3023.757812 2604.75 3021.953125 2598.863281 3021.96875 C 2596.765625 3021.960938 2594.664062 3021.953125 2592.5 3021.945312 C 2589.183594 3021.949219 2589.183594 3021.949219 2585.796875 3021.953125 C 2578.324219 3021.957031 2570.847656 3021.945312 2563.375 3021.929688 C 2558.042969 3021.929688 2552.707031 3021.929688 2547.375 3021.933594 C 2532.84375 3021.933594 2518.316406 3021.917969 2503.785156 3021.902344 C 2488.621094 3021.890625 2473.453125 3021.886719 2458.289062 3021.882812 C 2432.816406 3021.878906 2407.347656 3021.863281 2381.875 3021.84375 C 2355.632812 3021.820312 2329.394531 3021.804688 2303.15625 3021.792969 C 2300.730469 3021.792969 2300.730469 3021.792969 2298.257812 3021.792969 C 2290.148438 3021.789062 2282.039062 3021.785156 2273.929688 3021.785156 C 2206.621094 3021.761719 2139.308594 3021.71875 2072 3021.667969 C 2072 3019.355469 2072 3017.046875 2072 3014.667969 Z M 2072 3014.667969 "/>
<path style=" stroke:none;fill-rule:nonzero;fill:rgb(5.882353%,5.098039%,5.098039%);fill-opacity:1;" d="M 2174.667969 478.332031 C 2320.964844 478.332031 2467.265625 478.332031 2618 478.332031 C 2618 480.644531 2618 482.953125 2618 485.332031 C 2398.550781 484.179688 2398.550781 484.179688 2174.667969 483 C 2174.667969 481.460938 2174.667969 479.921875 2174.667969 478.332031 Z M 2174.667969 478.332031 "/>
<path style=" stroke:none;fill-rule:nonzero;fill:rgb(18.039216%,13.333334%,13.725491%);fill-opacity:1;" d="M 800.332031 548.332031 C 803.414062 549.101562 806.492188 549.875 809.667969 550.667969 C 808.152344 553.167969 806.636719 555.671875 805.074219 558.25 C 798.703125 571.097656 799.023438 583.246094 799.121094 597.355469 C 799.105469 600.144531 799.085938 602.933594 799.070312 605.804688 C 799.03125 613.507812 799.03125 621.203125 799.054688 628.90625 C 799.0625 637.222656 799.023438 645.542969 798.988281 653.859375 C 798.933594 668.257812 798.910156 682.65625 798.914062 697.054688 C 798.917969 717.871094 798.871094 738.691406 798.8125 759.507812 C 798.714844 793.285156 798.660156 827.0625 798.632812 860.839844 C 798.605469 893.648438 798.558594 926.453125 798.484375 959.257812 C 798.480469 961.28125 798.476562 963.304688 798.46875 965.390625 C 798.449219 975.539062 798.425781 985.691406 798.402344 995.839844 C 798.207031 1080.003906 798.082031 1164.167969 798 1248.332031 C 797.230469 1248.332031 796.460938 1248.332031 795.667969 1248.332031 C 795.667969 1021.953125 795.667969 795.574219 795.667969 562.332031 C 797.207031 562.332031 798.746094 562.332031 800.332031 562.332031 C 800.332031 557.714844 800.332031 553.09375 800.332031 548.332031 Z M 800.332031 548.332031 "/>
<path style=" stroke:none;fill-rule:nonzero;fill:rgb(3.137255%,2.352941%,1.960784%);fill-opacity:1;" d="M 2692.667969 548.332031 C 2694.976562 548.332031 2697.285156 548.332031 2699.667969 548.332031 C 2699.667969 552.953125 2699.667969 557.574219 2699.667969 562.332031 C 2701.207031 562.332031 2702.746094 562.332031 2704.332031 562.332031 C 2704.332031 750.984375 2704.332031 939.632812 2704.332031 1134 C 2703.5625 1134 2702.792969 1134 2702 1134 C 2701.996094 1131.160156 2701.988281 1128.324219 2701.984375 1125.398438 C 2701.847656 1057.957031 2701.679688 990.515625 2701.464844 923.070312 C 2701.4375 914.761719 2701.414062 906.453125 2701.386719 898.144531 C 2701.382812 896.492188 2701.378906 894.835938 2701.371094 893.132812 C 2701.289062 866.382812 2701.230469 839.632812 2701.183594 812.882812 C 2701.132812 785.417969 2701.054688 757.949219 2700.953125 730.484375 C 2700.898438 715.066406 2700.851562 699.644531 2700.839844 684.226562 C 2700.824219 669.703125 2700.777344 655.179688 2700.707031 640.65625 C 2700.6875 635.335938 2700.675781 630.015625 2700.683594 624.695312 C 2700.683594 617.410156 2700.644531 610.121094 2700.597656 602.835938 C 2700.609375 600.75 2700.621094 598.664062 2700.632812 596.515625 C 2700.480469 582.976562 2698.101562 571.175781 2694.164062 558.21875 C 2692.667969 553 2692.667969 553 2692.667969 548.332031 Z M 2692.667969 548.332031 "/>
<path style=" stroke:none;fill-rule:nonzero;fill:rgb(26.666668%,21.176471%,20.784314%);fill-opacity:1;" d="M 2699.667969 2618 C 2700.4375 2618 2701.207031 2618 2702 2618 C 2702.054688 2658.75 2702.09375 2699.496094 2702.121094 2740.246094 C 2702.132812 2759.167969 2702.148438 2778.089844 2702.175781 2797.007812 C 2702.199219 2813.503906 2702.214844 2830 2702.21875 2846.5 C 2702.222656 2855.230469 2702.230469 2863.960938 2702.246094 2872.691406 C 2702.265625 2882.449219 2702.265625 2892.207031 2702.265625 2901.964844 C 2702.273438 2904.84375 2702.28125 2907.722656 2702.289062 2910.6875 C 2702.273438 2924.574219 2701.800781 2937.9375 2699.667969 2951.667969 C 2696.585938 2951.667969 2693.507812 2951.667969 2690.332031 2951.667969 C 2690.332031 2956.285156 2690.332031 2960.90625 2690.332031 2965.667969 C 2688.792969 2965.667969 2687.253906 2965.667969 2685.667969 2965.667969 C 2685.667969 2967.207031 2685.667969 2968.746094 2685.667969 2970.332031 C 2682.585938 2970.332031 2679.507812 2970.332031 2676.332031 2970.332031 C 2676.332031 2973.414062 2676.332031 2976.492188 2676.332031 2979.667969 C 2674.792969 2979.667969 2673.253906 2979.667969 2671.667969 2979.667969 C 2671.667969 2981.207031 2671.667969 2982.746094 2671.667969 2984.332031 C 2668.585938 2983.5625 2665.507812 2982.792969 2662.332031 2982 C 2663.6875 2980.640625 2665.039062 2979.28125 2666.433594 2977.878906 C 2668.257812 2975.96875 2670.082031 2974.054688 2671.957031 2972.082031 C 2674.636719 2969.320312 2674.636719 2969.320312 2677.371094 2966.503906 C 2694.371094 2945.820312 2699.402344 2925.035156 2699.136719 2898.785156 C 2699.160156 2895.734375 2699.1875 2892.679688 2699.210938 2889.53125 C 2699.277344 2881.25 2699.257812 2872.972656 2699.222656 2864.691406 C 2699.203125 2856.003906 2699.257812 2847.316406 2699.308594 2838.625 C 2699.386719 2822.214844 2699.398438 2805.804688 2699.378906 2789.394531 C 2699.367188 2770.691406 2699.429688 2751.992188 2699.5 2733.292969 C 2699.644531 2694.859375 2699.6875 2656.429688 2699.667969 2618 Z M 2699.667969 2618 "/>
<path style=" stroke:none;fill-rule:nonzero;fill:rgb(14.901961%,10.588235%,10.980392%);fill-opacity:1;" d="M 800.332031 548.332031 C 803.414062 549.101562 806.492188 549.875 809.667969 550.667969 C 808.152344 553.242188 806.640625 555.820312 805.078125 558.476562 C 799.222656 570.261719 798.992188 580.75 799.058594 593.726562 C 799.023438 597.28125 799.023438 597.28125 798.988281 600.910156 C 798.917969 608.6875 798.914062 616.460938 798.910156 624.238281 C 798.875 629.652344 798.835938 635.066406 798.792969 640.480469 C 798.691406 654.691406 798.644531 668.898438 798.609375 683.105469 C 798.566406 697.621094 798.46875 712.136719 798.375 726.652344 C 798.199219 755.101562 798.082031 783.550781 798 812 C 797.230469 812 796.460938 812 795.667969 812 C 795.667969 729.609375 795.667969 647.21875 795.667969 562.332031 C 797.207031 562.332031 798.746094 562.332031 800.332031 562.332031 C 800.332031 557.714844 800.332031 553.09375 800.332031 548.332031 Z M 800.332031 548.332031 "/>
<path style=" stroke:none;fill-rule:nonzero;fill:rgb(40.000001%,36.862746%,34.901962%);fill-opacity:1;" d="M 2622.667969 487.667969 C 2626.515625 487.667969 2630.367188 487.667969 2634.332031 487.667969 C 2634.332031 489.207031 2634.332031 490.746094 2634.332031 492.332031 C 2638.953125 492.332031 2643.574219 492.332031 2648.332031 492.332031 C 2648.332031 494.644531 2648.332031 496.953125 2648.332031 499.332031 C 2651.414062 500.101562 2654.492188 500.875 2657.667969 501.667969 C 2657.667969 503.207031 2657.667969 504.746094 2657.667969 506.332031 C 2661.515625 506.332031 2665.367188 506.332031 2669.332031 506.332031 C 2669.332031 508.644531 2669.332031 510.953125 2669.332031 513.332031 C 2667.023438 513.332031 2664.714844 513.332031 2662.332031 513.332031 C 2663.101562 515.644531 2663.875 517.953125 2664.667969 520.332031 C 2657.230469 516.984375 2651.550781 512.859375 2645.417969 507.5 C 2643.769531 506.082031 2642.121094 504.660156 2640.421875 503.199219 C 2636.667969 499.332031 2636.667969 499.332031 2636.667969 494.667969 C 2632.046875 493.125 2627.425781 491.585938 2622.667969 490 C 2622.667969 489.230469 2622.667969 488.460938 2622.667969 487.667969 Z M 2622.667969 487.667969 "/>
<path style=" stroke:none;fill-rule:nonzero;fill:rgb(5.882353%,5.098039%,4.705882%);fill-opacity:1;" d="M 2699.667969 2928.332031 C 2703.496094 2935.992188 2700.878906 2943.324219 2699.667969 2951.667969 C 2696.585938 2951.667969 2693.507812 2951.667969 2690.332031 2951.667969 C 2690.332031 2956.285156 2690.332031 2960.90625 2690.332031 2965.667969 C 2688.792969 2965.667969 2687.253906 2965.667969 2685.667969 2965.667969 C 2685.667969 2967.207031 2685.667969 2968.746094 2685.667969 2970.332031 C 2682.585938 2970.332031 2679.507812 2970.332031 2676.332031 2970.332031 C 2676.332031 2973.414062 2676.332031 2976.492188 2676.332031 2979.667969 C 2674.792969 2979.667969 2673.253906 2979.667969 2671.667969 2979.667969 C 2671.667969 2981.207031 2671.667969 2982.746094 2671.667969 2984.332031 C 2668.585938 2983.5625 2665.507812 2982.792969 2662.332031 2982 C 2663.660156 2980.667969 2664.984375 2979.335938 2666.351562 2977.960938 C 2680.988281 2962.59375 2690.4375 2947.265625 2699.667969 2928.332031 Z M 2699.667969 2928.332031 "/>
<path style=" stroke:none;fill-rule:nonzero;fill:rgb(3.921569%,2.745098%,2.352941%);fill-opacity:1;" d="M 800.332031 548.332031 C 803.414062 549.101562 806.492188 549.875 809.667969 550.667969 C 808.164062 552.929688 806.660156 555.191406 805.109375 557.519531 C 797.195312 573.351562 798.742188 591.695312 798.582031 609 C 798.515625 612.625 798.449219 616.25 798.375 619.875 C 798.203125 628.695312 798.085938 637.511719 798 646.332031 C 797.230469 646.332031 796.460938 646.332031 795.667969 646.332031 C 795.667969 618.613281 795.667969 590.894531 795.667969 562.332031 C 797.207031 562.332031 798.746094 562.332031 800.332031 562.332031 C 800.332031 557.714844 800.332031 553.09375 800.332031 548.332031 Z M 800.332031 548.332031 "/>
<path style=" stroke:none;fill-rule:nonzero;fill:rgb(3.529412%,2.745098%,2.745098%);fill-opacity:1;" d="M 886.667969 3014.667969 C 905.917969 3015.4375 925.167969 3016.207031 945 3017 C 945 3017.769531 945 3018.539062 945 3019.332031 C 916.125 3020.488281 916.125 3020.488281 886.667969 3021.667969 C 886.667969 3019.355469 886.667969 3017.046875 886.667969 3014.667969 Z M 886.667969 3014.667969 "/>
<path style=" stroke:none;fill-rule:nonzero;fill:rgb(86.274511%,73.725492%,60.000002%);fill-opacity:1;" d="M 1050 2548 C 1050.769531 2548 1051.539062 2548 1052.332031 2548 C 1054.382812 2562.355469 1054.382812 2562.355469 1054.667969 2566.667969 C 1053.898438 2567.4375 1053.125 2568.207031 1052.332031 2569 C 1051.964844 2573.492188 1051.746094 2577.996094 1051.59375 2582.5 C 1051.496094 2585.226562 1051.398438 2587.957031 1051.296875 2590.769531 C 1051.207031 2593.644531 1051.117188 2596.519531 1051.019531 2599.480469 C 1050.921875 2602.363281 1050.820312 2605.246094 1050.714844 2608.214844 C 1050.46875 2615.367188 1050.230469 2622.515625 1050 2629.667969 C 1049.230469 2629.667969 1048.460938 2629.667969 1047.667969 2629.667969 C 1047.609375 2619.910156 1047.566406 2610.15625 1047.539062 2600.398438 C 1047.527344 2597.085938 1047.511719 2593.769531 1047.492188 2590.453125 C 1047.460938 2585.675781 1047.449219 2580.898438 1047.4375 2576.117188 C 1047.425781 2573.246094 1047.414062 2570.375 1047.402344 2567.417969 C 1047.632812 2560.617188 1048.417969 2554.597656 1050 2548 Z M 1050 2548 "/>
<path style=" stroke:none;fill-rule:nonzero;fill:rgb(65.490198%,55.686277%,42.352942%);fill-opacity:1;" d="M 1082.667969 728 C 1084.207031 728.769531 1085.746094 729.539062 1087.332031 730.332031 C 1076.554688 741.113281 1065.773438 751.894531 1054.667969 763 C 1053.125 762.230469 1051.585938 761.460938 1050 760.667969 C 1053.246094 756.960938 1056.503906 753.269531 1059.769531 749.582031 C 1062.492188 746.496094 1062.492188 746.496094 1065.265625 743.347656 C 1070.730469 737.617188 1076.371094 732.785156 1082.667969 728 Z M 1082.667969 728 "/>
<path style=" stroke:none;fill-rule:nonzero;fill:rgb(50.588238%,37.64706%,32.941177%);fill-opacity:1;" d="M 1386 2209.667969 C 1388.308594 2210.4375 1390.621094 2211.207031 1393 2212 C 1388.988281 2215.871094 1384.953125 2219.703125 1380.894531 2223.519531 C 1379.769531 2224.613281 1378.644531 2225.707031 1377.484375 2226.835938 C 1370.441406 2233.402344 1365.339844 2236.835938 1355.667969 2237.667969 C 1362.566406 2230.550781 1369.664062 2223.671875 1376.957031 2216.957031 C 1378.503906 2215.519531 1380.050781 2214.082031 1381.644531 2212.601562 C 1383.082031 2211.632812 1384.519531 2210.664062 1386 2209.667969 Z M 1386 2209.667969 "/>
<path style=" stroke:none;fill-rule:nonzero;fill:rgb(91.37255%,80.784315%,65.490198%);fill-opacity:1;" d="M 2144.332031 1906.332031 C 2145.875 1907.101562 2147.414062 1907.875 2149 1908.667969 C 2139.761719 1917.90625 2130.519531 1927.148438 2121 1936.667969 C 2119.460938 1935.898438 2117.921875 1935.125 2116.332031 1934.332031 C 2125.019531 1924.019531 2133.355469 1914.316406 2144.332031 1906.332031 Z M 2144.332031 1906.332031 "/>
<path style=" stroke:none;fill-rule:nonzero;fill:rgb(92.941177%,83.92157%,68.235296%);fill-opacity:1;" d="M 1635.667969 1397.667969 C 1637.207031 1398.4375 1638.746094 1399.207031 1640.332031 1400 C 1631.09375 1409.238281 1621.851562 1418.480469 1612.332031 1428 C 1610.792969 1427.230469 1609.253906 1426.460938 1607.667969 1425.667969 C 1616.25 1415.105469 1624.957031 1406.082031 1635.667969 1397.667969 Z M 1635.667969 1397.667969 "/>
<path style=" stroke:none;fill-rule:nonzero;fill:rgb(50.196081%,38.039216%,32.549021%);fill-opacity:1;" d="M 1425.667969 1628.667969 C 1427.207031 1630.976562 1428.746094 1633.285156 1430.332031 1635.667969 C 1428.117188 1639.566406 1425.878906 1643.453125 1423.625 1647.332031 C 1422.378906 1649.5 1421.132812 1651.664062 1419.851562 1653.894531 C 1418.691406 1655.582031 1417.53125 1657.265625 1416.332031 1659 C 1414.792969 1659 1413.253906 1659 1411.667969 1659 C 1415.601562 1648.503906 1420.574219 1638.632812 1425.667969 1628.667969 Z M 1425.667969 1628.667969 "/>
<path style=" stroke:none;fill-rule:nonzero;fill:rgb(57.647061%,46.27451%,39.215687%);fill-opacity:1;" d="M 1423.332031 2674 C 1424.101562 2674 1424.875 2674 1425.667969 2674 C 1427.402344 2685.097656 1422.710938 2691.640625 1417.007812 2700.660156 C 1416.015625 2701.871094 1415.023438 2703.085938 1414 2704.332031 C 1412.460938 2704.332031 1410.921875 2704.332031 1409.332031 2704.332031 C 1413.269531 2693.839844 1418.238281 2683.964844 1423.332031 2674 Z M 1423.332031 2674 "/>
<path style=" stroke:none;fill-rule:nonzero;fill:rgb(3.921569%,3.137255%,3.529412%);fill-opacity:1;" d="M 2692.667969 548.332031 C 2694.976562 548.332031 2697.285156 548.332031 2699.667969 548.332031 C 2699.667969 552.953125 2699.667969 557.574219 2699.667969 562.332031 C 2701.207031 562.332031 2702.746094 562.332031 2704.332031 562.332031 C 2703.5625 567.722656 2702.792969 573.113281 2702 578.667969 C 2701.230469 578.667969 2700.460938 578.667969 2699.667969 578.667969 C 2698.492188 574.488281 2697.328125 570.308594 2696.167969 566.125 C 2695.515625 563.796875 2694.867188 561.46875 2694.199219 559.070312 C 2692.667969 553 2692.667969 553 2692.667969 548.332031 Z M 2692.667969 548.332031 "/>
<path style=" stroke:none;fill-rule:nonzero;fill:rgb(89.803922%,78.039217%,64.313728%);fill-opacity:1;" d="M 1120 1915.667969 C 1121.539062 1916.4375 1123.078125 1917.207031 1124.667969 1918 C 1120.890625 1921.902344 1117.09375 1925.789062 1113.292969 1929.667969 C 1111.179688 1931.832031 1109.070312 1933.996094 1106.894531 1936.230469 C 1101.332031 1941.332031 1101.332031 1941.332031 1096.667969 1941.332031 C 1100.042969 1933.296875 1104.3125 1928.824219 1110.957031 1923.25 C 1112.648438 1921.816406 1114.339844 1920.386719 1116.082031 1918.910156 C 1118.019531 1917.304688 1118.019531 1917.304688 1120 1915.667969 Z M 1120 1915.667969 "/>
<path style=" stroke:none;fill-rule:nonzero;fill:rgb(27.450982%,22.745098%,22.745098%);fill-opacity:1;" d="M 889 3005.332031 C 889 3007.644531 889 3009.953125 889 3012.332031 C 882.070312 3012.332031 875.140625 3012.332031 868 3012.332031 C 868 3010.792969 868 3009.253906 868 3007.667969 C 875.171875 3005.542969 881.535156 3005.125 889 3005.332031 Z M 889 3005.332031 "/>
<path style=" stroke:none;fill-rule:nonzero;fill:rgb(56.078434%,43.921569%,38.039216%);fill-opacity:1;" d="M 1901.667969 2718.332031 C 1902.4375 2720.644531 1903.207031 2722.953125 1904 2725.332031 C 1897.839844 2731.492188 1891.679688 2737.652344 1885.332031 2744 C 1883.792969 2743.230469 1882.253906 2742.460938 1880.667969 2741.667969 C 1887.597656 2733.964844 1894.527344 2726.265625 1901.667969 2718.332031 Z M 1901.667969 2718.332031 "/>
<path style=" stroke:none;fill-rule:nonzero;fill:rgb(5.490196%,4.705882%,5.098039%);fill-opacity:1;" d="M 2622.667969 487.667969 C 2626.515625 487.667969 2630.367188 487.667969 2634.332031 487.667969 C 2634.332031 489.207031 2634.332031 490.746094 2634.332031 492.332031 C 2638.953125 492.332031 2643.574219 492.332031 2648.332031 492.332031 C 2648.332031 494.644531 2648.332031 496.953125 2648.332031 499.332031 C 2638.703125 497.917969 2631.226562 494.578125 2622.667969 490 C 2622.667969 489.230469 2622.667969 488.460938 2622.667969 487.667969 Z M 2622.667969 487.667969 "/>
<path style=" stroke:none;fill-rule:nonzero;fill:rgb(5.098039%,4.705882%,4.313726%);fill-opacity:1;" d="M 2639 3000.667969 C 2640.539062 3000.667969 2642.078125 3000.667969 2643.667969 3000.667969 C 2643.667969 3002.976562 2643.667969 3005.285156 2643.667969 3007.667969 C 2633.160156 3011.765625 2624.589844 3012.785156 2613.332031 3012.332031 C 2613.332031 3011.5625 2613.332031 3010.792969 2613.332031 3010 C 2614.992188 3009.523438 2616.648438 3009.042969 2618.355469 3008.550781 C 2620.5 3007.921875 2622.644531 3007.292969 2624.855469 3006.644531 C 2628.0625 3005.710938 2628.0625 3005.710938 2631.335938 3004.757812 C 2636.527344 3003.488281 2636.527344 3003.488281 2639 3000.667969 Z M 2639 3000.667969 "/>
<path style=" stroke:none;fill-rule:nonzero;fill:rgb(4.313726%,2.745098%,2.352941%);fill-opacity:1;" d="M 809.667969 2951.667969 C 814.613281 2957.769531 819.304688 2963.792969 823.667969 2970.332031 C 820.585938 2970.332031 817.507812 2970.332031 814.332031 2970.332031 C 814.332031 2968.792969 814.332031 2967.253906 814.332031 2965.667969 C 812.792969 2965.667969 811.253906 2965.667969 809.667969 2965.667969 C 809.667969 2961.046875 809.667969 2956.425781 809.667969 2951.667969 Z M 809.667969 2951.667969 "/>
<path style=" stroke:none;fill-rule:nonzero;fill:rgb(5.882353%,4.705882%,4.313726%);fill-opacity:1;" d="M 798 2930.667969 C 805.246094 2937.914062 806.898438 2942.082031 809.667969 2951.667969 C 806.585938 2951.667969 803.507812 2951.667969 800.332031 2951.667969 C 799.5625 2944.738281 798.792969 2937.808594 798 2930.667969 Z M 798 2930.667969 "/>
<path style=" stroke:none;fill-rule:nonzero;fill:rgb(88.627452%,76.47059%,61.56863%);fill-opacity:1;" d="M 1614.667969 2447.667969 C 1616.207031 2448.4375 1617.746094 2449.207031 1619.332031 2450 C 1613.941406 2456.160156 1608.554688 2462.320312 1603 2468.667969 C 1601.460938 2467.898438 1599.921875 2467.125 1598.332031 2466.332031 C 1603.722656 2460.171875 1609.113281 2454.011719 1614.667969 2447.667969 Z M 1614.667969 2447.667969 "/>
<path style=" stroke:none;fill-rule:nonzero;fill:rgb(3.529412%,3.137255%,3.529412%);fill-opacity:1;" d="M 2681 520.332031 C 2682.539062 521.101562 2684.078125 521.875 2685.667969 522.667969 C 2685.667969 526.515625 2685.667969 530.367188 2685.667969 534.332031 C 2687.207031 534.332031 2688.746094 534.332031 2690.332031 534.332031 C 2690.332031 538.183594 2690.332031 542.035156 2690.332031 546 C 2683.605469 538.402344 2679.523438 532.933594 2678.667969 522.667969 C 2679.4375 521.898438 2680.207031 521.125 2681 520.332031 Z M 2681 520.332031 "/>
<path style=" stroke:none;fill-rule:nonzero;fill:rgb(42.745098%,40.392157%,36.862746%);fill-opacity:1;" d="M 2662.332031 515.667969 C 2666.953125 515.667969 2671.574219 515.667969 2676.332031 515.667969 C 2676.332031 520.285156 2676.332031 524.90625 2676.332031 529.667969 C 2671.617188 525.835938 2666.953125 521.945312 2662.332031 518 C 2662.332031 517.230469 2662.332031 516.460938 2662.332031 515.667969 Z M 2662.332031 515.667969 "/>
<path style=" stroke:none;fill-rule:nonzero;fill:rgb(3.137255%,2.745098%,2.352941%);fill-opacity:1;" d="M 2660 2984.332031 C 2660.769531 2987.414062 2661.539062 2990.492188 2662.332031 2993.667969 C 2655.332031 2998.332031 2655.332031 2998.332031 2650.230469 2997.457031 C 2648.832031 2996.976562 2647.4375 2996.496094 2646 2996 C 2650.621094 2992.148438 2655.238281 2988.300781 2660 2984.332031 Z M 2660 2984.332031 "/>
<path style=" stroke:none;fill-rule:nonzero;fill:rgb(3.921569%,3.137255%,3.137255%);fill-opacity:1;" d="M 2671.667969 2970.332031 C 2673.207031 2970.332031 2674.746094 2970.332031 2676.332031 2970.332031 C 2676.332031 2973.414062 2676.332031 2976.492188 2676.332031 2979.667969 C 2674.792969 2979.667969 2673.253906 2979.667969 2671.667969 2979.667969 C 2671.667969 2981.207031 2671.667969 2982.746094 2671.667969 2984.332031 C 2668.585938 2983.5625 2665.507812 2982.792969 2662.332031 2982 C 2665.320312 2978.015625 2668.441406 2974.128906 2671.667969 2970.332031 Z M 2671.667969 2970.332031 "/>
<path style=" stroke:none;fill-rule:nonzero;fill:rgb(4.313726%,3.529412%,3.529412%);fill-opacity:1;" d="M 814.332031 529.667969 C 816.644531 529.667969 818.953125 529.667969 821.332031 529.667969 C 818.132812 536.558594 814.359375 542.359375 809.667969 548.332031 C 809.667969 543.714844 809.667969 539.09375 809.667969 534.332031 C 811.207031 534.332031 812.746094 534.332031 814.332031 534.332031 C 814.332031 532.792969 814.332031 531.253906 814.332031 529.667969 Z M 814.332031 529.667969 "/>
<path style=" stroke:none;fill-rule:nonzero;fill:rgb(90.980393%,81.568629%,66.666669%);fill-opacity:1;" d="M 1234.332031 1743 C 1240.492188 1743.769531 1246.652344 1744.539062 1253 1745.332031 C 1253 1746.875 1253 1748.414062 1253 1750 C 1246.839844 1750 1240.679688 1750 1234.332031 1750 C 1234.332031 1747.691406 1234.332031 1745.378906 1234.332031 1743 Z M 1234.332031 1743 "/>
<path style=" stroke:none;fill-rule:nonzero;fill:rgb(4.313726%,3.137255%,2.745098%);fill-opacity:1;" d="M 837.667969 2984.332031 C 843.058594 2988.183594 848.445312 2992.035156 854 2996 C 850.921875 2996.769531 847.839844 2997.539062 844.667969 2998.332031 C 842.355469 2996.792969 840.046875 2995.253906 837.667969 2993.667969 C 837.667969 2990.585938 837.667969 2987.507812 837.667969 2984.332031 Z M 837.667969 2984.332031 "/>
<path style=" stroke:none;fill-rule:nonzero;fill:rgb(4.705882%,3.137255%,2.745098%);fill-opacity:1;" d="M 823.667969 2970.332031 C 828.285156 2974.183594 832.90625 2978.035156 837.667969 2982 C 834.585938 2982.769531 831.507812 2983.539062 828.332031 2984.332031 C 828.332031 2982.792969 828.332031 2981.253906 828.332031 2979.667969 C 826.792969 2979.667969 825.253906 2979.667969 823.667969 2979.667969 C 823.667969 2976.585938 823.667969 2973.507812 823.667969 2970.332031 Z M 823.667969 2970.332031 "/>
<path style=" stroke:none;fill-rule:nonzero;fill:rgb(52.156866%,38.82353%,31.37255%);fill-opacity:1;" d="M 1395.332031 1677.667969 C 1395.332031 1684.667969 1395.332031 1684.667969 1393 1691.667969 C 1387.019531 1694.4375 1387.019531 1694.4375 1381.332031 1696.332031 C 1390.082031 1682.917969 1390.082031 1682.917969 1395.332031 1677.667969 Z M 1395.332031 1677.667969 "/>
<path style=" stroke:none;fill-rule:nonzero;fill:rgb(53.333336%,43.137255%,36.862746%);fill-opacity:1;" d="M 2447.667969 1159.667969 C 2448.4375 1162.746094 2449.207031 1165.828125 2450 1169 C 2445.480469 1174.25 2445.480469 1174.25 2440.667969 1178.332031 C 2439.125 1177.5625 2437.585938 1176.792969 2436 1176 C 2439.851562 1170.609375 2443.699219 1165.21875 2447.667969 1159.667969 Z M 2447.667969 1159.667969 "/>
<path style=" stroke:none;fill-rule:nonzero;fill:rgb(7.058824%,6.666667%,5.098039%);fill-opacity:1;" d="M 1675.332031 3486 C 1676.875 3486 1678.414062 3486 1680 3486 C 1680 3487.539062 1680 3489.078125 1680 3490.667969 C 1678.460938 3490.667969 1676.921875 3490.667969 1675.332031 3490.667969 C 1675.332031 3489.125 1675.332031 3487.585938 1675.332031 3486 Z M 1675.332031 3486 "/>
<path style=" stroke:none;fill-rule:nonzero;fill:rgb(0.392157%,0%,0%);fill-opacity:1;" d="M 630 3467.332031 C 631.539062 3467.332031 633.078125 3467.332031 634.667969 3467.332031 C 634.667969 3468.875 634.667969 3470.414062 634.667969 3472 C 633.125 3472 631.585938 3472 630 3472 C 630 3470.460938 630 3468.921875 630 3467.332031 Z M 630 3467.332031 "/>
<path style=" stroke:none;fill-rule:nonzero;fill:rgb(0%,0%,0%);fill-opacity:1;" d="M 457.332031 3467.332031 C 458.875 3467.332031 460.414062 3467.332031 462 3467.332031 C 462 3468.875 462 3470.414062 462 3472 C 460.460938 3472 458.921875 3472 457.332031 3472 C 457.332031 3470.460938 457.332031 3468.921875 457.332031 3467.332031 Z M 457.332031 3467.332031 "/>
<path style=" stroke:none;fill-rule:nonzero;fill:rgb(0%,0%,0%);fill-opacity:1;" d="M 3397.332031 3458 C 3398.875 3458 3400.414062 3458 3402 3458 C 3402 3459.539062 3402 3461.078125 3402 3462.667969 C 3400.460938 3462.667969 3398.921875 3462.667969 3397.332031 3462.667969 C 3397.332031 3461.125 3397.332031 3459.585938 3397.332031 3458 Z M 3397.332031 3458 "/>
<path style=" stroke:none;fill-rule:nonzero;fill:rgb(7.058824%,5.490196%,5.098039%);fill-opacity:1;" d="M 1022 3439.332031 C 1023.539062 3439.332031 1025.078125 3439.332031 1026.667969 3439.332031 C 1026.667969 3440.875 1026.667969 3442.414062 1026.667969 3444 C 1025.125 3444 1023.585938 3444 1022 3444 C 1022 3442.460938 1022 3440.921875 1022 3439.332031 Z M 1022 3439.332031 "/>
<path style=" stroke:none;fill-rule:nonzero;fill:rgb(0%,0%,0%);fill-opacity:1;" d="M 261.332031 3430 C 262.875 3430 264.414062 3430 266 3430 C 266 3431.539062 266 3433.078125 266 3434.667969 C 264.460938 3434.667969 262.921875 3434.667969 261.332031 3434.667969 C 261.332031 3433.125 261.332031 3431.585938 261.332031 3430 Z M 261.332031 3430 "/>
<path style=" stroke:none;fill-rule:nonzero;fill:rgb(4.705882%,3.137255%,3.137255%);fill-opacity:1;" d="M 1302 3360 C 1303.539062 3360 1305.078125 3360 1306.667969 3360 C 1306.667969 3361.539062 1306.667969 3363.078125 1306.667969 3364.667969 C 1305.125 3364.667969 1303.585938 3364.667969 1302 3364.667969 C 1302 3363.125 1302 3361.585938 1302 3360 Z M 1302 3360 "/>
<path style=" stroke:none;fill-rule:nonzero;fill:rgb(0.784314%,0.392157%,0.392157%);fill-opacity:1;" d="M 630 3313.332031 C 631.539062 3313.332031 633.078125 3313.332031 634.667969 3313.332031 C 634.667969 3314.875 634.667969 3316.414062 634.667969 3318 C 633.125 3318 631.585938 3318 630 3318 C 630 3316.460938 630 3314.921875 630 3313.332031 Z M 630 3313.332031 "/>
<path style=" stroke:none;fill-rule:nonzero;fill:rgb(14.901961%,12.941177%,13.333334%);fill-opacity:1;" d="M 989.332031 3285.332031 C 990.875 3285.332031 992.414062 3285.332031 994 3285.332031 C 994 3286.875 994 3288.414062 994 3290 C 992.460938 3290 990.921875 3290 989.332031 3290 C 989.332031 3288.460938 989.332031 3286.921875 989.332031 3285.332031 Z M 989.332031 3285.332031 "/>
<path style=" stroke:none;fill-rule:nonzero;fill:rgb(0%,0%,0%);fill-opacity:1;" d="M 79.332031 3276 C 80.875 3276 82.414062 3276 84 3276 C 84 3277.539062 84 3279.078125 84 3280.667969 C 82.460938 3280.667969 80.921875 3280.667969 79.332031 3280.667969 C 79.332031 3279.125 79.332031 3277.585938 79.332031 3276 Z M 79.332031 3276 "/>
<path style=" stroke:none;fill-rule:nonzero;fill:rgb(13.725491%,12.156863%,10.588235%);fill-opacity:1;" d="M 1913.332031 3271.332031 C 1914.875 3271.332031 1916.414062 3271.332031 1918 3271.332031 C 1918 3272.875 1918 3274.414062 1918 3276 C 1916.460938 3276 1914.921875 3276 1913.332031 3276 C 1913.332031 3274.460938 1913.332031 3272.921875 1913.332031 3271.332031 Z M 1913.332031 3271.332031 "/>
<path style=" stroke:none;fill-rule:nonzero;fill:rgb(20.392157%,16.078432%,17.254902%);fill-opacity:1;" d="M 1624 3257.332031 C 1625.539062 3257.332031 1627.078125 3257.332031 1628.667969 3257.332031 C 1628.667969 3258.875 1628.667969 3260.414062 1628.667969 3262 C 1627.125 3262 1625.585938 3262 1624 3262 C 1624 3260.460938 1624 3258.921875 1624 3257.332031 Z M 1624 3257.332031 "/>
<path style=" stroke:none;fill-rule:nonzero;fill:rgb(0.784314%,0.392157%,0.392157%);fill-opacity:1;" d="M 2982 3257.332031 C 2983.539062 3257.332031 2985.078125 3257.332031 2986.667969 3257.332031 C 2986.667969 3258.875 2986.667969 3260.414062 2986.667969 3262 C 2985.125 3262 2983.585938 3262 2982 3262 C 2982 3260.460938 2982 3258.921875 2982 3257.332031 Z M 2982 3257.332031 "/>
<path style=" stroke:none;fill-rule:nonzero;fill:rgb(7.058824%,6.27451%,5.882353%);fill-opacity:1;" d="M 2809.332031 3173.332031 C 2810.875 3173.332031 2812.414062 3173.332031 2814 3173.332031 C 2814 3174.875 2814 3176.414062 2814 3178 C 2812.460938 3178 2810.921875 3178 2809.332031 3178 C 2809.332031 3176.460938 2809.332031 3174.921875 2809.332031 3173.332031 Z M 2809.332031 3173.332031 "/>
<path style=" stroke:none;fill-rule:nonzero;fill:rgb(11.372549%,9.019608%,9.019608%);fill-opacity:1;" d="M 2674 3173.332031 C 2675.539062 3173.332031 2677.078125 3173.332031 2678.667969 3173.332031 C 2678.667969 3174.875 2678.667969 3176.414062 2678.667969 3178 C 2677.125 3178 2675.585938 3178 2674 3178 C 2674 3176.460938 2674 3174.921875 2674 3173.332031 Z M 2674 3173.332031 "/>
<path style=" stroke:none;fill-rule:nonzero;fill:rgb(12.54902%,9.411765%,10.196079%);fill-opacity:1;" d="M 807.332031 3033.332031 C 808.875 3033.332031 810.414062 3033.332031 812 3033.332031 C 812 3034.875 812 3036.414062 812 3038 C 810.460938 3038 808.921875 3038 807.332031 3038 C 807.332031 3036.460938 807.332031 3034.921875 807.332031 3033.332031 Z M 807.332031 3033.332031 "/>
<path style=" stroke:none;fill-rule:nonzero;fill:rgb(0%,0%,0%);fill-opacity:1;" d="M 3178 3033.332031 C 3179.539062 3033.332031 3181.078125 3033.332031 3182.667969 3033.332031 C 3182.667969 3034.875 3182.667969 3036.414062 3182.667969 3038 C 3181.125 3038 3179.585938 3038 3178 3038 C 3178 3036.460938 3178 3034.921875 3178 3033.332031 Z M 3178 3033.332031 "/>
<path style=" stroke:none;fill-rule:nonzero;fill:rgb(5.490196%,4.705882%,4.313726%);fill-opacity:1;" d="M 2884 2800 C 2885.539062 2800 2887.078125 2800 2888.667969 2800 C 2888.667969 2801.539062 2888.667969 2803.078125 2888.667969 2804.667969 C 2887.125 2804.667969 2885.585938 2804.667969 2884 2804.667969 C 2884 2803.125 2884 2801.585938 2884 2800 Z M 2884 2800 "/>
<path style=" stroke:none;fill-rule:nonzero;fill:rgb(0%,0%,0%);fill-opacity:1;" d="M 457.332031 2711.332031 C 458.875 2711.332031 460.414062 2711.332031 462 2711.332031 C 462 2712.875 462 2714.414062 462 2716 C 460.460938 2716 458.921875 2716 457.332031 2716 C 457.332031 2714.460938 457.332031 2712.921875 457.332031 2711.332031 Z M 457.332031 2711.332031 "/>
<path style=" stroke:none;fill-rule:nonzero;fill:rgb(0%,0%,0%);fill-opacity:1;" d="M 107.332031 2711.332031 C 108.875 2711.332031 110.414062 2711.332031 112 2711.332031 C 112 2712.875 112 2714.414062 112 2716 C 110.460938 2716 108.921875 2716 107.332031 2716 C 107.332031 2714.460938 107.332031 2712.921875 107.332031 2711.332031 Z M 107.332031 2711.332031 "/>
<path style=" stroke:none;fill-rule:nonzero;fill:rgb(36.078432%,28.627452%,23.137255%);fill-opacity:1;" d="M 2730 2618 C 2731.539062 2618 2733.078125 2618 2734.667969 2618 C 2734.667969 2619.539062 2734.667969 2621.078125 2734.667969 2622.667969 C 2733.125 2622.667969 2731.585938 2622.667969 2730 2622.667969 C 2730 2621.125 2730 2619.585938 2730 2618 Z M 2730 2618 "/>
<path style=" stroke:none;fill-rule:nonzero;fill:rgb(18.82353%,15.294118%,16.078432%);fill-opacity:1;" d="M 574 2352 C 575.539062 2352 577.078125 2352 578.667969 2352 C 578.667969 2353.539062 578.667969 2355.078125 578.667969 2356.667969 C 577.125 2356.667969 575.585938 2356.667969 574 2356.667969 C 574 2355.125 574 2353.585938 574 2352 Z M 574 2352 "/>
<path style=" stroke:none;fill-rule:nonzero;fill:rgb(12.54902%,12.156863%,12.156863%);fill-opacity:1;" d="M 499.332031 2319.332031 C 500.875 2319.332031 502.414062 2319.332031 504 2319.332031 C 504 2320.875 504 2322.414062 504 2324 C 502.460938 2324 500.921875 2324 499.332031 2324 C 499.332031 2322.460938 499.332031 2320.921875 499.332031 2319.332031 Z M 499.332031 2319.332031 "/>
<path style=" stroke:none;fill-rule:nonzero;fill:rgb(4.705882%,3.137255%,3.921569%);fill-opacity:1;" d="M 3019.332031 2319.332031 C 3020.875 2319.332031 3022.414062 2319.332031 3024 2319.332031 C 3024 2320.875 3024 2322.414062 3024 2324 C 3022.460938 2324 3020.921875 2324 3019.332031 2324 C 3019.332031 2322.460938 3019.332031 2320.921875 3019.332031 2319.332031 Z M 3019.332031 2319.332031 "/>
<path style=" stroke:none;fill-rule:nonzero;fill:rgb(0.392157%,0%,0%);fill-opacity:1;" d="M 3136 2235.332031 C 3137.539062 2235.332031 3139.078125 2235.332031 3140.667969 2235.332031 C 3140.667969 2236.875 3140.667969 2238.414062 3140.667969 2240 C 3139.125 2240 3137.585938 2240 3136 2240 C 3136 2238.460938 3136 2236.921875 3136 2235.332031 Z M 3136 2235.332031 "/>
<path style=" stroke:none;fill-rule:nonzero;fill:rgb(1.176471%,0.784314%,0.784314%);fill-opacity:1;" d="M 3117.332031 2193.332031 C 3118.875 2193.332031 3120.414062 2193.332031 3122 2193.332031 C 3122 2194.875 3122 2196.414062 3122 2198 C 3120.460938 2198 3118.921875 2198 3117.332031 2198 C 3117.332031 2196.460938 3117.332031 2194.921875 3117.332031 2193.332031 Z M 3117.332031 2193.332031 "/>
<path style=" stroke:none;fill-rule:nonzero;fill:rgb(0%,0%,0%);fill-opacity:1;" d="M 3453.332031 2142 C 3454.875 2142 3456.414062 2142 3458 2142 C 3458 2143.539062 3458 2145.078125 3458 2146.667969 C 3456.460938 2146.667969 3454.921875 2146.667969 3453.332031 2146.667969 C 3453.332031 2145.125 3453.332031 2143.585938 3453.332031 2142 Z M 3453.332031 2142 "/>
<path style=" stroke:none;fill-rule:nonzero;fill:rgb(27.450982%,21.568628%,24.705882%);fill-opacity:1;" d="M 700 2109.332031 C 701.539062 2109.332031 703.078125 2109.332031 704.667969 2109.332031 C 704.667969 2110.875 704.667969 2112.414062 704.667969 2114 C 703.125 2114 701.585938 2114 700 2114 C 700 2112.460938 700 2110.921875 700 2109.332031 Z M 700 2109.332031 "/>
<path style=" stroke:none;fill-rule:nonzero;fill:rgb(2.352941%,1.960784%,1.960784%);fill-opacity:1;" d="M 448 2081.332031 C 449.539062 2081.332031 451.078125 2081.332031 452.667969 2081.332031 C 452.667969 2082.875 452.667969 2084.414062 452.667969 2086 C 451.125 2086 449.585938 2086 448 2086 C 448 2084.460938 448 2082.921875 448 2081.332031 Z M 448 2081.332031 "/>
<path style=" stroke:none;fill-rule:nonzero;fill:rgb(0%,0%,0%);fill-opacity:1;" d="M 210 1918 C 211.539062 1918 213.078125 1918 214.667969 1918 C 214.667969 1919.539062 214.667969 1921.078125 214.667969 1922.667969 C 213.125 1922.667969 211.585938 1922.667969 210 1922.667969 C 210 1921.125 210 1919.585938 210 1918 Z M 210 1918 "/>
<path style=" stroke:none;fill-rule:nonzero;fill:rgb(0%,0%,0%);fill-opacity:1;" d="M 3187.332031 1736 C 3188.875 1736 3190.414062 1736 3192 1736 C 3192 1737.539062 3192 1739.078125 3192 1740.667969 C 3190.460938 1740.667969 3188.921875 1740.667969 3187.332031 1740.667969 C 3187.332031 1739.125 3187.332031 1737.585938 3187.332031 1736 Z M 3187.332031 1736 "/>
<path style=" stroke:none;fill-rule:nonzero;fill:rgb(30.19608%,26.274511%,25.098041%);fill-opacity:1;" d="M 751.332031 1554 C 752.875 1554 754.414062 1554 756 1554 C 756 1555.539062 756 1557.078125 756 1558.667969 C 754.460938 1558.667969 752.921875 1558.667969 751.332031 1558.667969 C 751.332031 1557.125 751.332031 1555.585938 751.332031 1554 Z M 751.332031 1554 "/>
<path style=" stroke:none;fill-rule:nonzero;fill:rgb(30.19608%,23.921569%,27.058825%);fill-opacity:1;" d="M 653.332031 1521.332031 C 654.875 1521.332031 656.414062 1521.332031 658 1521.332031 C 658 1522.875 658 1524.414062 658 1526 C 656.460938 1526 654.921875 1526 653.332031 1526 C 653.332031 1524.460938 653.332031 1522.921875 653.332031 1521.332031 Z M 653.332031 1521.332031 "/>
<path style=" stroke:none;fill-rule:nonzero;fill:rgb(0%,0%,0%);fill-opacity:1;" d="M 3374 1456 C 3375.539062 1456 3377.078125 1456 3378.667969 1456 C 3378.667969 1457.539062 3378.667969 1459.078125 3378.667969 1460.667969 C 3377.125 1460.667969 3375.585938 1460.667969 3374 1460.667969 C 3374 1459.125 3374 1457.585938 3374 1456 Z M 3374 1456 "/>
<path style=" stroke:none;fill-rule:nonzero;fill:rgb(0.784314%,0.392157%,0.392157%);fill-opacity:1;" d="M 3019.332031 1353.332031 C 3020.875 1353.332031 3022.414062 1353.332031 3024 1353.332031 C 3024 1354.875 3024 1356.414062 3024 1358 C 3022.460938 1358 3020.921875 1358 3019.332031 1358 C 3019.332031 1356.460938 3019.332031 1354.921875 3019.332031 1353.332031 Z M 3019.332031 1353.332031 "/>
<path style=" stroke:none;fill-rule:nonzero;fill:rgb(0.392157%,0%,0.392157%);fill-opacity:1;" d="M 3033.332031 1316 C 3034.875 1316 3036.414062 1316 3038 1316 C 3038 1317.539062 3038 1319.078125 3038 1320.667969 C 3036.460938 1320.667969 3034.921875 1320.667969 3033.332031 1320.667969 C 3033.332031 1319.125 3033.332031 1317.585938 3033.332031 1316 Z M 3033.332031 1316 "/>
<path style=" stroke:none;fill-rule:nonzero;fill:rgb(32.941177%,28.235295%,25.490198%);fill-opacity:1;" d="M 742 1246 C 743.539062 1246 745.078125 1246 746.667969 1246 C 746.667969 1247.539062 746.667969 1249.078125 746.667969 1250.667969 C 745.125 1250.667969 743.585938 1250.667969 742 1250.667969 C 742 1249.125 742 1247.585938 742 1246 Z M 742 1246 "/>
<path style=" stroke:none;fill-rule:nonzero;fill:rgb(16.470589%,14.117648%,14.117648%);fill-opacity:1;" d="M 588 1204 C 589.539062 1204 591.078125 1204 592.667969 1204 C 592.667969 1205.539062 592.667969 1207.078125 592.667969 1208.667969 C 591.125 1208.667969 589.585938 1208.667969 588 1208.667969 C 588 1207.125 588 1205.585938 588 1204 Z M 588 1204 "/>
<path style=" stroke:none;fill-rule:nonzero;fill:rgb(23.921569%,17.254902%,14.901961%);fill-opacity:1;" d="M 2772 975.332031 C 2773.539062 975.332031 2775.078125 975.332031 2776.667969 975.332031 C 2776.667969 976.875 2776.667969 978.414062 2776.667969 980 C 2775.125 980 2773.585938 980 2772 980 C 2772 978.460938 2772 976.921875 2772 975.332031 Z M 2772 975.332031 "/>
<path style=" stroke:none;fill-rule:nonzero;fill:rgb(32.156864%,26.274511%,22.352941%);fill-opacity:1;" d="M 2739.332031 779.332031 C 2740.875 779.332031 2742.414062 779.332031 2744 779.332031 C 2744 780.875 2744 782.414062 2744 784 C 2742.460938 784 2740.921875 784 2739.332031 784 C 2739.332031 782.460938 2739.332031 780.921875 2739.332031 779.332031 Z M 2739.332031 779.332031 "/>
<path style=" stroke:none;fill-rule:nonzero;fill:rgb(26.666668%,22.745098%,20.392157%);fill-opacity:1;" d="M 728 630 C 729.539062 630 731.078125 630 732.667969 630 C 732.667969 631.539062 732.667969 633.078125 732.667969 634.667969 C 731.125 634.667969 729.585938 634.667969 728 634.667969 C 728 633.125 728 631.585938 728 630 Z M 728 630 "/>
<path style=" stroke:none;fill-rule:nonzero;fill:rgb(0%,0%,0%);fill-opacity:1;" d="M 3346 499.332031 C 3347.539062 499.332031 3349.078125 499.332031 3350.667969 499.332031 C 3350.667969 500.875 3350.667969 502.414062 3350.667969 504 C 3349.125 504 3347.585938 504 3346 504 C 3346 502.460938 3346 500.921875 3346 499.332031 Z M 3346 499.332031 "/>
<path style=" stroke:none;fill-rule:nonzero;fill:rgb(0%,0%,0%);fill-opacity:1;" d="M 23.332031 443.332031 C 24.875 443.332031 26.414062 443.332031 28 443.332031 C 28 444.875 28 446.414062 28 448 C 26.460938 448 24.921875 448 23.332031 448 C 23.332031 446.460938 23.332031 444.921875 23.332031 443.332031 Z M 23.332031 443.332031 "/>
<path style=" stroke:none;fill-rule:nonzero;fill:rgb(18.82353%,18.82353%,18.039216%);fill-opacity:1;" d="M 994 415.332031 C 995.539062 415.332031 997.078125 415.332031 998.667969 415.332031 C 998.667969 416.875 998.667969 418.414062 998.667969 420 C 997.125 420 995.585938 420 994 420 C 994 418.460938 994 416.921875 994 415.332031 Z M 994 415.332031 "/>
<path style=" stroke:none;fill-rule:nonzero;fill:rgb(20.784314%,19.607843%,18.039216%);fill-opacity:1;" d="M 975.332031 387.332031 C 976.875 387.332031 978.414062 387.332031 980 387.332031 C 980 388.875 980 390.414062 980 392 C 978.460938 392 976.921875 392 975.332031 392 C 975.332031 390.460938 975.332031 388.921875 975.332031 387.332031 Z M 975.332031 387.332031 "/>
<path style=" stroke:none;fill-rule:nonzero;fill:rgb(21.960784%,18.431373%,19.215687%);fill-opacity:1;" d="M 2464 373.332031 C 2465.539062 373.332031 2467.078125 373.332031 2468.667969 373.332031 C 2468.667969 374.875 2468.667969 376.414062 2468.667969 378 C 2467.125 378 2465.585938 378 2464 378 C 2464 376.460938 2464 374.921875 2464 373.332031 Z M 2464 373.332031 "/>
<path style=" stroke:none;fill-rule:nonzero;fill:rgb(3.137255%,2.352941%,2.352941%);fill-opacity:1;" d="M 630 345.332031 C 631.539062 345.332031 633.078125 345.332031 634.667969 345.332031 C 634.667969 346.875 634.667969 348.414062 634.667969 350 C 633.125 350 631.585938 350 630 350 C 630 348.460938 630 346.921875 630 345.332031 Z M 630 345.332031 "/>
<path style=" stroke:none;fill-rule:nonzero;fill:rgb(0%,0%,0%);fill-opacity:1;" d="M 350 345.332031 C 351.539062 345.332031 353.078125 345.332031 354.667969 345.332031 C 354.667969 346.875 354.667969 348.414062 354.667969 350 C 353.125 350 351.585938 350 350 350 C 350 348.460938 350 346.921875 350 345.332031 Z M 350 345.332031 "/>
<path style=" stroke:none;fill-rule:nonzero;fill:rgb(20%,16.862746%,16.078432%);fill-opacity:1;" d="M 2282 322 C 2283.539062 322 2285.078125 322 2286.667969 322 C 2286.667969 323.539062 2286.667969 325.078125 2286.667969 326.667969 C 2285.125 326.667969 2283.585938 326.667969 2282 326.667969 C 2282 325.125 2282 323.585938 2282 322 Z M 2282 322 "/>
<path style=" stroke:none;fill-rule:nonzero;fill:rgb(0.392157%,0%,0.392157%);fill-opacity:1;" d="M 364 317.332031 C 365.539062 317.332031 367.078125 317.332031 368.667969 317.332031 C 368.667969 318.875 368.667969 320.414062 368.667969 322 C 367.125 322 365.585938 322 364 322 C 364 320.460938 364 318.921875 364 317.332031 Z M 364 317.332031 "/>
<path style=" stroke:none;fill-rule:nonzero;fill:rgb(6.27451%,4.705882%,4.705882%);fill-opacity:1;" d="M 1703.332031 280 C 1704.875 280 1706.414062 280 1708 280 C 1708 281.539062 1708 283.078125 1708 284.667969 C 1706.460938 284.667969 1704.921875 284.667969 1703.332031 284.667969 C 1703.332031 283.125 1703.332031 281.585938 1703.332031 280 Z M 1703.332031 280 "/>
<path style=" stroke:none;fill-rule:nonzero;fill:rgb(1.176471%,0.784314%,0.784314%);fill-opacity:1;" d="M 2641.332031 275.332031 C 2642.875 275.332031 2644.414062 275.332031 2646 275.332031 C 2646 276.875 2646 278.414062 2646 280 C 2644.460938 280 2642.921875 280 2641.332031 280 C 2641.332031 278.460938 2641.332031 276.921875 2641.332031 275.332031 Z M 2641.332031 275.332031 "/>
<path style=" stroke:none;fill-rule:nonzero;fill:rgb(1.960784%,1.176471%,1.568628%);fill-opacity:1;" d="M 723.332031 252 C 724.875 252 726.414062 252 728 252 C 728 253.539062 728 255.078125 728 256.667969 C 726.460938 256.667969 724.921875 256.667969 723.332031 256.667969 C 723.332031 255.125 723.332031 253.585938 723.332031 252 Z M 723.332031 252 "/>
<path style=" stroke:none;fill-rule:nonzero;fill:rgb(1.960784%,1.568628%,1.568628%);fill-opacity:1;" d="M 1596 238 C 1597.539062 238 1599.078125 238 1600.667969 238 C 1600.667969 239.539062 1600.667969 241.078125 1600.667969 242.667969 C 1599.125 242.667969 1597.585938 242.667969 1596 242.667969 C 1596 241.125 1596 239.585938 1596 238 Z M 1596 238 "/>
<path style=" stroke:none;fill-rule:nonzero;fill:rgb(0%,0%,0%);fill-opacity:1;" d="M 294 224 C 295.539062 224 297.078125 224 298.667969 224 C 298.667969 225.539062 298.667969 227.078125 298.667969 228.667969 C 297.125 228.667969 295.585938 228.667969 294 228.667969 C 294 227.125 294 225.585938 294 224 Z M 294 224 "/>
<path style=" stroke:none;fill-rule:nonzero;fill:rgb(1.568628%,0.784314%,1.176471%);fill-opacity:1;" d="M 1927.332031 168 C 1928.875 168 1930.414062 168 1932 168 C 1932 169.539062 1932 171.078125 1932 172.667969 C 1930.460938 172.667969 1928.921875 172.667969 1927.332031 172.667969 C 1927.332031 171.125 1927.332031 169.585938 1927.332031 168 Z M 1927.332031 168 "/>
<path style=" stroke:none;fill-rule:nonzero;fill:rgb(2.745098%,2.745098%,2.352941%);fill-opacity:1;" d="M 1493.332031 121.332031 C 1494.875 121.332031 1496.414062 121.332031 1498 121.332031 C 1498 122.875 1498 124.414062 1498 126 C 1496.460938 126 1494.921875 126 1493.332031 126 C 1493.332031 124.460938 1493.332031 122.921875 1493.332031 121.332031 Z M 1493.332031 121.332031 "/>
<path style=" stroke:none;fill-rule:nonzero;fill:rgb(1.176471%,1.176471%,1.176471%);fill-opacity:1;" d="M 1437.332031 121.332031 C 1438.875 121.332031 1440.414062 121.332031 1442 121.332031 C 1442 122.875 1442 124.414062 1442 126 C 1440.460938 126 1438.921875 126 1437.332031 126 C 1437.332031 124.460938 1437.332031 122.921875 1437.332031 121.332031 Z M 1437.332031 121.332031 "/>
<path style=" stroke:none;fill-rule:nonzero;fill:rgb(0.392157%,0%,0%);fill-opacity:1;" d="M 210 98 C 211.539062 98 213.078125 98 214.667969 98 C 214.667969 99.539062 214.667969 101.078125 214.667969 102.667969 C 213.125 102.667969 211.585938 102.667969 210 102.667969 C 210 101.125 210 99.585938 210 98 Z M 210 98 "/>
<path style=" stroke:none;fill-rule:nonzero;fill:rgb(0.392157%,0%,0.392157%);fill-opacity:1;" d="M 2599.332031 70 C 2600.875 70 2602.414062 70 2604 70 C 2604 71.539062 2604 73.078125 2604 74.667969 C 2602.460938 74.667969 2600.921875 74.667969 2599.332031 74.667969 C 2599.332031 73.125 2599.332031 71.585938 2599.332031 70 Z M 2599.332031 70 "/>
<path style=" stroke:none;fill-rule:nonzero;fill:rgb(0%,0%,0%);fill-opacity:1;" d="M 2184 42 C 2185.539062 42 2187.078125 42 2188.667969 42 C 2188.667969 43.539062 2188.667969 45.078125 2188.667969 46.667969 C 2187.125 46.667969 2185.585938 46.667969 2184 46.667969 C 2184 45.125 2184 43.585938 2184 42 Z M 2184 42 "/>
<path style=" stroke:none;fill-rule:nonzero;fill:rgb(0.392157%,0%,0%);fill-opacity:1;" d="M 1092 23.332031 C 1093.539062 23.332031 1095.078125 23.332031 1096.667969 23.332031 C 1096.667969 24.875 1096.667969 26.414062 1096.667969 28 C 1095.125 28 1093.585938 28 1092 28 C 1092 26.460938 1092 24.921875 1092 23.332031 Z M 1092 23.332031 "/>
</g>
</svg>
